G04 #@! TF.FileFunction,Soldermask,Top*
%FSLAX46Y46*%
G04 Gerber Fmt 4.6, Leading zero omitted, Abs format (unit mm)*
G04 Created by KiCad (PCBNEW 4.0.7) date 03/28/18 09:41:18*
%MOMM*%
%LPD*%
G01*
G04 APERTURE LIST*
%ADD10C,0.100000*%
%ADD11R,3.000000X2.635000*%
%ADD12R,2.635000X3.000000*%
%ADD13R,2.100000X2.100000*%
%ADD14O,2.100000X2.100000*%
%ADD15R,4.360000X2.380000*%
%ADD16O,4.360000X2.380000*%
%ADD17R,2.400000X4.200000*%
%ADD18R,2.400000X1.900000*%
%ADD19R,1.950000X1.700000*%
%ADD20R,1.000000X1.950000*%
%ADD21R,1.500000X1.500000*%
%ADD22R,3.190000X3.320000*%
%ADD23R,1.620000X1.270000*%
%ADD24R,1.245000X1.400000*%
%ADD25R,1.400000X1.245000*%
G04 APERTURE END LIST*
D10*
D11*
X104300000Y-105382500D03*
X104300000Y-111817500D03*
D12*
X102782500Y-119000000D03*
X109217500Y-119000000D03*
D13*
X130800000Y-115320000D03*
D14*
X130800000Y-112780000D03*
X130800000Y-110240000D03*
X130800000Y-107700000D03*
D15*
X91200000Y-97700000D03*
D16*
X91200000Y-102700000D03*
D15*
X134100000Y-102700000D03*
D16*
X134100000Y-97700000D03*
D17*
X125650000Y-102400000D03*
D18*
X119350000Y-102400000D03*
X119350000Y-104700000D03*
X119350000Y-100100000D03*
D19*
X115020000Y-112850000D03*
X115020000Y-108350000D03*
X122980000Y-108350000D03*
X122980000Y-112850000D03*
D20*
X96490000Y-116594999D03*
X97760000Y-116594999D03*
X99030000Y-116594999D03*
X100300000Y-116594999D03*
X100300000Y-111194999D03*
X99030000Y-111194999D03*
X97760000Y-111194999D03*
X96490000Y-111194999D03*
D21*
X96300000Y-107900000D03*
X99100000Y-107900000D03*
D22*
X90500000Y-119150000D03*
X90500000Y-108850000D03*
D23*
X130400000Y-118700000D03*
X132000000Y-118700000D03*
D24*
X134041072Y-118699999D03*
X135966072Y-118699999D03*
D25*
X127600000Y-110262500D03*
X127600000Y-108337500D03*
D24*
X112462500Y-112800000D03*
X110537500Y-112800000D03*
X114462500Y-100100000D03*
X112537500Y-100100000D03*
D25*
X116300000Y-100037500D03*
X116300000Y-101962500D03*
D21*
X104300000Y-101500000D03*
X101500000Y-101500000D03*
M02*
