G04 #@! TF.FileFunction,Legend,Bot*
%FSLAX46Y46*%
G04 Gerber Fmt 4.6, Leading zero omitted, Abs format (unit mm)*
G04 Created by KiCad (PCBNEW 4.0.7) date 03/28/18 09:41:18*
%MOMM*%
%LPD*%
G01*
G04 APERTURE LIST*
%ADD10C,0.100000*%
%ADD11C,0.250000*%
%ADD12C,0.152400*%
%ADD13C,0.120000*%
G04 APERTURE END LIST*
D10*
D11*
X96703571Y-97038095D02*
X96703571Y-97371429D01*
X97227381Y-97514286D02*
X97227381Y-97038095D01*
X96227381Y-97038095D01*
X96227381Y-97514286D01*
X97179762Y-97895238D02*
X97227381Y-98038095D01*
X97227381Y-98276191D01*
X97179762Y-98371429D01*
X97132143Y-98419048D01*
X97036905Y-98466667D01*
X96941667Y-98466667D01*
X96846429Y-98419048D01*
X96798810Y-98371429D01*
X96751190Y-98276191D01*
X96703571Y-98085714D01*
X96655952Y-97990476D01*
X96608333Y-97942857D01*
X96513095Y-97895238D01*
X96417857Y-97895238D01*
X96322619Y-97942857D01*
X96275000Y-97990476D01*
X96227381Y-98085714D01*
X96227381Y-98323810D01*
X96275000Y-98466667D01*
X97227381Y-98895238D02*
X96227381Y-98895238D01*
X96227381Y-99276191D01*
X96275000Y-99371429D01*
X96322619Y-99419048D01*
X96417857Y-99466667D01*
X96560714Y-99466667D01*
X96655952Y-99419048D01*
X96703571Y-99371429D01*
X96751190Y-99276191D01*
X96751190Y-98895238D01*
X96846429Y-99895238D02*
X96846429Y-100657143D01*
X97227381Y-101657143D02*
X97227381Y-101085714D01*
X97227381Y-101371428D02*
X96227381Y-101371428D01*
X96370238Y-101276190D01*
X96465476Y-101180952D01*
X96513095Y-101085714D01*
X96322619Y-102038095D02*
X96275000Y-102085714D01*
X96227381Y-102180952D01*
X96227381Y-102419048D01*
X96275000Y-102514286D01*
X96322619Y-102561905D01*
X96417857Y-102609524D01*
X96513095Y-102609524D01*
X96655952Y-102561905D01*
X97227381Y-101990476D01*
X97227381Y-102609524D01*
X96703571Y-103038095D02*
X96703571Y-103371429D01*
X97227381Y-103514286D02*
X97227381Y-103038095D01*
X96227381Y-103038095D01*
X96227381Y-103514286D01*
X97132143Y-103942857D02*
X97179762Y-103990476D01*
X97227381Y-103942857D01*
X97179762Y-103895238D01*
X97132143Y-103942857D01*
X97227381Y-103942857D01*
X96608333Y-103942857D02*
X96655952Y-103990476D01*
X96703571Y-103942857D01*
X96655952Y-103895238D01*
X96608333Y-103942857D01*
X96703571Y-103942857D01*
X98025000Y-97561905D02*
X97977381Y-97466667D01*
X97977381Y-97323810D01*
X98025000Y-97180952D01*
X98120238Y-97085714D01*
X98215476Y-97038095D01*
X98405952Y-96990476D01*
X98548810Y-96990476D01*
X98739286Y-97038095D01*
X98834524Y-97085714D01*
X98929762Y-97180952D01*
X98977381Y-97323810D01*
X98977381Y-97419048D01*
X98929762Y-97561905D01*
X98882143Y-97609524D01*
X98548810Y-97609524D01*
X98548810Y-97419048D01*
X98977381Y-98038095D02*
X97977381Y-98038095D01*
X97977381Y-98419048D01*
X98025000Y-98514286D01*
X98072619Y-98561905D01*
X98167857Y-98609524D01*
X98310714Y-98609524D01*
X98405952Y-98561905D01*
X98453571Y-98514286D01*
X98501190Y-98419048D01*
X98501190Y-98038095D01*
X98977381Y-99038095D02*
X97977381Y-99038095D01*
X97977381Y-99704761D02*
X97977381Y-99895238D01*
X98025000Y-99990476D01*
X98120238Y-100085714D01*
X98310714Y-100133333D01*
X98644048Y-100133333D01*
X98834524Y-100085714D01*
X98929762Y-99990476D01*
X98977381Y-99895238D01*
X98977381Y-99704761D01*
X98929762Y-99609523D01*
X98834524Y-99514285D01*
X98644048Y-99466666D01*
X98310714Y-99466666D01*
X98120238Y-99514285D01*
X98025000Y-99609523D01*
X97977381Y-99704761D01*
X97977381Y-100752380D02*
X97977381Y-100847619D01*
X98025000Y-100942857D01*
X98072619Y-100990476D01*
X98167857Y-101038095D01*
X98358333Y-101085714D01*
X98596429Y-101085714D01*
X98786905Y-101038095D01*
X98882143Y-100990476D01*
X98929762Y-100942857D01*
X98977381Y-100847619D01*
X98977381Y-100752380D01*
X98929762Y-100657142D01*
X98882143Y-100609523D01*
X98786905Y-100561904D01*
X98596429Y-100514285D01*
X98358333Y-100514285D01*
X98167857Y-100561904D01*
X98072619Y-100609523D01*
X98025000Y-100657142D01*
X97977381Y-100752380D01*
X98596429Y-102276190D02*
X98596429Y-103038095D01*
X98929762Y-104228571D02*
X98977381Y-104371428D01*
X98977381Y-104609524D01*
X98929762Y-104704762D01*
X98882143Y-104752381D01*
X98786905Y-104800000D01*
X98691667Y-104800000D01*
X98596429Y-104752381D01*
X98548810Y-104704762D01*
X98501190Y-104609524D01*
X98453571Y-104419047D01*
X98405952Y-104323809D01*
X98358333Y-104276190D01*
X98263095Y-104228571D01*
X98167857Y-104228571D01*
X98072619Y-104276190D01*
X98025000Y-104323809D01*
X97977381Y-104419047D01*
X97977381Y-104657143D01*
X98025000Y-104800000D01*
X98310714Y-105133333D02*
X98977381Y-105323809D01*
X98501190Y-105514286D01*
X98977381Y-105704762D01*
X98310714Y-105895238D01*
X98977381Y-106276190D02*
X98310714Y-106276190D01*
X97977381Y-106276190D02*
X98025000Y-106228571D01*
X98072619Y-106276190D01*
X98025000Y-106323809D01*
X97977381Y-106276190D01*
X98072619Y-106276190D01*
X98310714Y-106609523D02*
X98310714Y-106990475D01*
X97977381Y-106752380D02*
X98834524Y-106752380D01*
X98929762Y-106799999D01*
X98977381Y-106895237D01*
X98977381Y-106990475D01*
X98929762Y-107752381D02*
X98977381Y-107657143D01*
X98977381Y-107466666D01*
X98929762Y-107371428D01*
X98882143Y-107323809D01*
X98786905Y-107276190D01*
X98501190Y-107276190D01*
X98405952Y-107323809D01*
X98358333Y-107371428D01*
X98310714Y-107466666D01*
X98310714Y-107657143D01*
X98358333Y-107752381D01*
X98977381Y-108180952D02*
X97977381Y-108180952D01*
X98977381Y-108609524D02*
X98453571Y-108609524D01*
X98358333Y-108561905D01*
X98310714Y-108466667D01*
X98310714Y-108323809D01*
X98358333Y-108228571D01*
X98405952Y-108180952D01*
X98977381Y-109847619D02*
X98310714Y-109847619D01*
X97977381Y-109847619D02*
X98025000Y-109800000D01*
X98072619Y-109847619D01*
X98025000Y-109895238D01*
X97977381Y-109847619D01*
X98072619Y-109847619D01*
X98310714Y-110323809D02*
X98977381Y-110323809D01*
X98405952Y-110323809D02*
X98358333Y-110371428D01*
X98310714Y-110466666D01*
X98310714Y-110609524D01*
X98358333Y-110704762D01*
X98453571Y-110752381D01*
X98977381Y-110752381D01*
X98310714Y-111228571D02*
X99310714Y-111228571D01*
X98358333Y-111228571D02*
X98310714Y-111323809D01*
X98310714Y-111514286D01*
X98358333Y-111609524D01*
X98405952Y-111657143D01*
X98501190Y-111704762D01*
X98786905Y-111704762D01*
X98882143Y-111657143D01*
X98929762Y-111609524D01*
X98977381Y-111514286D01*
X98977381Y-111323809D01*
X98929762Y-111228571D01*
X98310714Y-112561905D02*
X98977381Y-112561905D01*
X98310714Y-112133333D02*
X98834524Y-112133333D01*
X98929762Y-112180952D01*
X98977381Y-112276190D01*
X98977381Y-112419048D01*
X98929762Y-112514286D01*
X98882143Y-112561905D01*
X98310714Y-112895238D02*
X98310714Y-113276190D01*
X97977381Y-113038095D02*
X98834524Y-113038095D01*
X98929762Y-113085714D01*
X98977381Y-113180952D01*
X98977381Y-113276190D01*
X99775000Y-97561905D02*
X99727381Y-97466667D01*
X99727381Y-97323810D01*
X99775000Y-97180952D01*
X99870238Y-97085714D01*
X99965476Y-97038095D01*
X100155952Y-96990476D01*
X100298810Y-96990476D01*
X100489286Y-97038095D01*
X100584524Y-97085714D01*
X100679762Y-97180952D01*
X100727381Y-97323810D01*
X100727381Y-97419048D01*
X100679762Y-97561905D01*
X100632143Y-97609524D01*
X100298810Y-97609524D01*
X100298810Y-97419048D01*
X100727381Y-98038095D02*
X99727381Y-98038095D01*
X99727381Y-98419048D01*
X99775000Y-98514286D01*
X99822619Y-98561905D01*
X99917857Y-98609524D01*
X100060714Y-98609524D01*
X100155952Y-98561905D01*
X100203571Y-98514286D01*
X100251190Y-98419048D01*
X100251190Y-98038095D01*
X100727381Y-99038095D02*
X99727381Y-99038095D01*
X99727381Y-99704761D02*
X99727381Y-99895238D01*
X99775000Y-99990476D01*
X99870238Y-100085714D01*
X100060714Y-100133333D01*
X100394048Y-100133333D01*
X100584524Y-100085714D01*
X100679762Y-99990476D01*
X100727381Y-99895238D01*
X100727381Y-99704761D01*
X100679762Y-99609523D01*
X100584524Y-99514285D01*
X100394048Y-99466666D01*
X100060714Y-99466666D01*
X99870238Y-99514285D01*
X99775000Y-99609523D01*
X99727381Y-99704761D01*
X100727381Y-101085714D02*
X100727381Y-100514285D01*
X100727381Y-100799999D02*
X99727381Y-100799999D01*
X99870238Y-100704761D01*
X99965476Y-100609523D01*
X100013095Y-100514285D01*
X99822619Y-101466666D02*
X99775000Y-101514285D01*
X99727381Y-101609523D01*
X99727381Y-101847619D01*
X99775000Y-101942857D01*
X99822619Y-101990476D01*
X99917857Y-102038095D01*
X100013095Y-102038095D01*
X100155952Y-101990476D01*
X100727381Y-101419047D01*
X100727381Y-102038095D01*
X100346429Y-103228571D02*
X100346429Y-103990476D01*
X100727381Y-105228571D02*
X99727381Y-105228571D01*
X100441667Y-105561905D01*
X99727381Y-105895238D01*
X100727381Y-105895238D01*
X99727381Y-106561904D02*
X99727381Y-106752381D01*
X99775000Y-106847619D01*
X99870238Y-106942857D01*
X100060714Y-106990476D01*
X100394048Y-106990476D01*
X100584524Y-106942857D01*
X100679762Y-106847619D01*
X100727381Y-106752381D01*
X100727381Y-106561904D01*
X100679762Y-106466666D01*
X100584524Y-106371428D01*
X100394048Y-106323809D01*
X100060714Y-106323809D01*
X99870238Y-106371428D01*
X99775000Y-106466666D01*
X99727381Y-106561904D01*
X100679762Y-107371428D02*
X100727381Y-107514285D01*
X100727381Y-107752381D01*
X100679762Y-107847619D01*
X100632143Y-107895238D01*
X100536905Y-107942857D01*
X100441667Y-107942857D01*
X100346429Y-107895238D01*
X100298810Y-107847619D01*
X100251190Y-107752381D01*
X100203571Y-107561904D01*
X100155952Y-107466666D01*
X100108333Y-107419047D01*
X100013095Y-107371428D01*
X99917857Y-107371428D01*
X99822619Y-107419047D01*
X99775000Y-107466666D01*
X99727381Y-107561904D01*
X99727381Y-107800000D01*
X99775000Y-107942857D01*
X100203571Y-108704762D02*
X100203571Y-108371428D01*
X100727381Y-108371428D02*
X99727381Y-108371428D01*
X99727381Y-108847619D01*
X100203571Y-109228571D02*
X100203571Y-109561905D01*
X100727381Y-109704762D02*
X100727381Y-109228571D01*
X99727381Y-109228571D01*
X99727381Y-109704762D01*
X99727381Y-109990476D02*
X99727381Y-110561905D01*
X100727381Y-110276190D02*
X99727381Y-110276190D01*
X100679762Y-110942857D02*
X100727381Y-110942857D01*
X100822619Y-110895238D01*
X100870238Y-110847619D01*
X100727381Y-112561905D02*
X100203571Y-112561905D01*
X100108333Y-112514286D01*
X100060714Y-112419048D01*
X100060714Y-112228571D01*
X100108333Y-112133333D01*
X100679762Y-112561905D02*
X100727381Y-112466667D01*
X100727381Y-112228571D01*
X100679762Y-112133333D01*
X100584524Y-112085714D01*
X100489286Y-112085714D01*
X100394048Y-112133333D01*
X100346429Y-112228571D01*
X100346429Y-112466667D01*
X100298810Y-112561905D01*
X100679762Y-113466667D02*
X100727381Y-113371429D01*
X100727381Y-113180952D01*
X100679762Y-113085714D01*
X100632143Y-113038095D01*
X100536905Y-112990476D01*
X100251190Y-112990476D01*
X100155952Y-113038095D01*
X100108333Y-113085714D01*
X100060714Y-113180952D01*
X100060714Y-113371429D01*
X100108333Y-113466667D01*
X100060714Y-113752381D02*
X100060714Y-114133333D01*
X99727381Y-113895238D02*
X100584524Y-113895238D01*
X100679762Y-113942857D01*
X100727381Y-114038095D01*
X100727381Y-114133333D01*
X100727381Y-114466667D02*
X100060714Y-114466667D01*
X99727381Y-114466667D02*
X99775000Y-114419048D01*
X99822619Y-114466667D01*
X99775000Y-114514286D01*
X99727381Y-114466667D01*
X99822619Y-114466667D01*
X100060714Y-114847619D02*
X100727381Y-115085714D01*
X100060714Y-115323810D01*
X100679762Y-116085715D02*
X100727381Y-115990477D01*
X100727381Y-115800000D01*
X100679762Y-115704762D01*
X100584524Y-115657143D01*
X100203571Y-115657143D01*
X100108333Y-115704762D01*
X100060714Y-115800000D01*
X100060714Y-115990477D01*
X100108333Y-116085715D01*
X100203571Y-116133334D01*
X100298810Y-116133334D01*
X100394048Y-115657143D01*
X100727381Y-117323810D02*
X99727381Y-117323810D01*
X100727381Y-117752382D02*
X100203571Y-117752382D01*
X100108333Y-117704763D01*
X100060714Y-117609525D01*
X100060714Y-117466667D01*
X100108333Y-117371429D01*
X100155952Y-117323810D01*
X100727381Y-118228572D02*
X100060714Y-118228572D01*
X99727381Y-118228572D02*
X99775000Y-118180953D01*
X99822619Y-118228572D01*
X99775000Y-118276191D01*
X99727381Y-118228572D01*
X99822619Y-118228572D01*
X100060714Y-119133334D02*
X100870238Y-119133334D01*
X100965476Y-119085715D01*
X101013095Y-119038096D01*
X101060714Y-118942857D01*
X101060714Y-118800000D01*
X101013095Y-118704762D01*
X100679762Y-119133334D02*
X100727381Y-119038096D01*
X100727381Y-118847619D01*
X100679762Y-118752381D01*
X100632143Y-118704762D01*
X100536905Y-118657143D01*
X100251190Y-118657143D01*
X100155952Y-118704762D01*
X100108333Y-118752381D01*
X100060714Y-118847619D01*
X100060714Y-119038096D01*
X100108333Y-119133334D01*
X100727381Y-119609524D02*
X99727381Y-119609524D01*
X100727381Y-120038096D02*
X100203571Y-120038096D01*
X100108333Y-119990477D01*
X100060714Y-119895239D01*
X100060714Y-119752381D01*
X100108333Y-119657143D01*
X100155952Y-119609524D01*
X101525000Y-97561905D02*
X101477381Y-97466667D01*
X101477381Y-97323810D01*
X101525000Y-97180952D01*
X101620238Y-97085714D01*
X101715476Y-97038095D01*
X101905952Y-96990476D01*
X102048810Y-96990476D01*
X102239286Y-97038095D01*
X102334524Y-97085714D01*
X102429762Y-97180952D01*
X102477381Y-97323810D01*
X102477381Y-97419048D01*
X102429762Y-97561905D01*
X102382143Y-97609524D01*
X102048810Y-97609524D01*
X102048810Y-97419048D01*
X102477381Y-98038095D02*
X101477381Y-98038095D01*
X101477381Y-98419048D01*
X101525000Y-98514286D01*
X101572619Y-98561905D01*
X101667857Y-98609524D01*
X101810714Y-98609524D01*
X101905952Y-98561905D01*
X101953571Y-98514286D01*
X102001190Y-98419048D01*
X102001190Y-98038095D01*
X102477381Y-99038095D02*
X101477381Y-99038095D01*
X101477381Y-99704761D02*
X101477381Y-99895238D01*
X101525000Y-99990476D01*
X101620238Y-100085714D01*
X101810714Y-100133333D01*
X102144048Y-100133333D01*
X102334524Y-100085714D01*
X102429762Y-99990476D01*
X102477381Y-99895238D01*
X102477381Y-99704761D01*
X102429762Y-99609523D01*
X102334524Y-99514285D01*
X102144048Y-99466666D01*
X101810714Y-99466666D01*
X101620238Y-99514285D01*
X101525000Y-99609523D01*
X101477381Y-99704761D01*
X102477381Y-101085714D02*
X102477381Y-100514285D01*
X102477381Y-100799999D02*
X101477381Y-100799999D01*
X101620238Y-100704761D01*
X101715476Y-100609523D01*
X101763095Y-100514285D01*
X101477381Y-101419047D02*
X101477381Y-102038095D01*
X101858333Y-101704761D01*
X101858333Y-101847619D01*
X101905952Y-101942857D01*
X101953571Y-101990476D01*
X102048810Y-102038095D01*
X102286905Y-102038095D01*
X102382143Y-101990476D01*
X102429762Y-101942857D01*
X102477381Y-101847619D01*
X102477381Y-101561904D01*
X102429762Y-101466666D01*
X102382143Y-101419047D01*
X102096429Y-103228571D02*
X102096429Y-103990476D01*
X102477381Y-105704762D02*
X102477381Y-105228571D01*
X101477381Y-105228571D01*
X101953571Y-106038095D02*
X101953571Y-106371429D01*
X102477381Y-106514286D02*
X102477381Y-106038095D01*
X101477381Y-106038095D01*
X101477381Y-106514286D01*
X102477381Y-106942857D02*
X101477381Y-106942857D01*
X101477381Y-107180952D01*
X101525000Y-107323810D01*
X101620238Y-107419048D01*
X101715476Y-107466667D01*
X101905952Y-107514286D01*
X102048810Y-107514286D01*
X102239286Y-107466667D01*
X102334524Y-107419048D01*
X102429762Y-107323810D01*
X102477381Y-107180952D01*
X102477381Y-106942857D01*
X102429762Y-107990476D02*
X102477381Y-107990476D01*
X102572619Y-107942857D01*
X102620238Y-107895238D01*
X102477381Y-109609524D02*
X101953571Y-109609524D01*
X101858333Y-109561905D01*
X101810714Y-109466667D01*
X101810714Y-109276190D01*
X101858333Y-109180952D01*
X102429762Y-109609524D02*
X102477381Y-109514286D01*
X102477381Y-109276190D01*
X102429762Y-109180952D01*
X102334524Y-109133333D01*
X102239286Y-109133333D01*
X102144048Y-109180952D01*
X102096429Y-109276190D01*
X102096429Y-109514286D01*
X102048810Y-109609524D01*
X102429762Y-110514286D02*
X102477381Y-110419048D01*
X102477381Y-110228571D01*
X102429762Y-110133333D01*
X102382143Y-110085714D01*
X102286905Y-110038095D01*
X102001190Y-110038095D01*
X101905952Y-110085714D01*
X101858333Y-110133333D01*
X101810714Y-110228571D01*
X101810714Y-110419048D01*
X101858333Y-110514286D01*
X101810714Y-110800000D02*
X101810714Y-111180952D01*
X101477381Y-110942857D02*
X102334524Y-110942857D01*
X102429762Y-110990476D01*
X102477381Y-111085714D01*
X102477381Y-111180952D01*
X102477381Y-111514286D02*
X101810714Y-111514286D01*
X101477381Y-111514286D02*
X101525000Y-111466667D01*
X101572619Y-111514286D01*
X101525000Y-111561905D01*
X101477381Y-111514286D01*
X101572619Y-111514286D01*
X101810714Y-111895238D02*
X102477381Y-112133333D01*
X101810714Y-112371429D01*
X102429762Y-113133334D02*
X102477381Y-113038096D01*
X102477381Y-112847619D01*
X102429762Y-112752381D01*
X102334524Y-112704762D01*
X101953571Y-112704762D01*
X101858333Y-112752381D01*
X101810714Y-112847619D01*
X101810714Y-113038096D01*
X101858333Y-113133334D01*
X101953571Y-113180953D01*
X102048810Y-113180953D01*
X102144048Y-112704762D01*
X102477381Y-114514286D02*
X102429762Y-114419048D01*
X102334524Y-114371429D01*
X101477381Y-114371429D01*
X102477381Y-115038096D02*
X102429762Y-114942858D01*
X102382143Y-114895239D01*
X102286905Y-114847620D01*
X102001190Y-114847620D01*
X101905952Y-114895239D01*
X101858333Y-114942858D01*
X101810714Y-115038096D01*
X101810714Y-115180954D01*
X101858333Y-115276192D01*
X101905952Y-115323811D01*
X102001190Y-115371430D01*
X102286905Y-115371430D01*
X102382143Y-115323811D01*
X102429762Y-115276192D01*
X102477381Y-115180954D01*
X102477381Y-115038096D01*
X101810714Y-115704763D02*
X102477381Y-115895239D01*
X102001190Y-116085716D01*
X102477381Y-116276192D01*
X101810714Y-116466668D01*
D12*
X110984000Y-97641000D02*
X110984000Y-96879000D01*
X110984000Y-96879000D02*
X126986000Y-96879000D01*
X126986000Y-96879000D02*
X126986000Y-97641000D01*
D13*
X107220000Y-111990000D02*
X106780000Y-111990000D01*
X107220000Y-113010000D02*
X106780000Y-113010000D01*
X107220000Y-107990000D02*
X106780000Y-107990000D01*
X107220000Y-109010000D02*
X106780000Y-109010000D01*
M02*
