G04 #@! TF.FileFunction,Legend,Top*
%FSLAX46Y46*%
G04 Gerber Fmt 4.6, Leading zero omitted, Abs format (unit mm)*
G04 Created by KiCad (PCBNEW 4.0.7) date 03/28/18 09:41:18*
%MOMM*%
%LPD*%
G01*
G04 APERTURE LIST*
%ADD10C,0.100000*%
%ADD11C,0.200000*%
%ADD12C,0.300000*%
%ADD13C,0.120000*%
%ADD14C,0.150000*%
G04 APERTURE END LIST*
D10*
D11*
X98466667Y-97102381D02*
X98276190Y-97102381D01*
X98180952Y-97150000D01*
X98133333Y-97197619D01*
X98038095Y-97340476D01*
X97990476Y-97530952D01*
X97990476Y-97911905D01*
X98038095Y-98007143D01*
X98085714Y-98054762D01*
X98180952Y-98102381D01*
X98371429Y-98102381D01*
X98466667Y-98054762D01*
X98514286Y-98007143D01*
X98561905Y-97911905D01*
X98561905Y-97673810D01*
X98514286Y-97578571D01*
X98466667Y-97530952D01*
X98371429Y-97483333D01*
X98180952Y-97483333D01*
X98085714Y-97530952D01*
X98038095Y-97578571D01*
X97990476Y-97673810D01*
X98990476Y-97721429D02*
X99752381Y-97721429D01*
X100180952Y-97197619D02*
X100228571Y-97150000D01*
X100323809Y-97102381D01*
X100561905Y-97102381D01*
X100657143Y-97150000D01*
X100704762Y-97197619D01*
X100752381Y-97292857D01*
X100752381Y-97388095D01*
X100704762Y-97530952D01*
X100133333Y-98102381D01*
X100752381Y-98102381D01*
X101609524Y-97435714D02*
X101609524Y-98102381D01*
X101371428Y-97054762D02*
X101133333Y-97769048D01*
X101752381Y-97769048D01*
X101990476Y-97102381D02*
X102323809Y-98102381D01*
X102657143Y-97102381D01*
X98038095Y-99802381D02*
X98038095Y-98802381D01*
X98276190Y-98802381D01*
X98419048Y-98850000D01*
X98514286Y-98945238D01*
X98561905Y-99040476D01*
X98609524Y-99230952D01*
X98609524Y-99373810D01*
X98561905Y-99564286D01*
X98514286Y-99659524D01*
X98419048Y-99754762D01*
X98276190Y-99802381D01*
X98038095Y-99802381D01*
X99609524Y-99707143D02*
X99561905Y-99754762D01*
X99419048Y-99802381D01*
X99323810Y-99802381D01*
X99180952Y-99754762D01*
X99085714Y-99659524D01*
X99038095Y-99564286D01*
X98990476Y-99373810D01*
X98990476Y-99230952D01*
X99038095Y-99040476D01*
X99085714Y-98945238D01*
X99180952Y-98850000D01*
X99323810Y-98802381D01*
X99419048Y-98802381D01*
X99561905Y-98850000D01*
X99609524Y-98897619D01*
X100800000Y-99802381D02*
X100800000Y-99135714D01*
X100800000Y-98802381D02*
X100752381Y-98850000D01*
X100800000Y-98897619D01*
X100847619Y-98850000D01*
X100800000Y-98802381D01*
X100800000Y-98897619D01*
X101276190Y-99135714D02*
X101276190Y-99802381D01*
X101276190Y-99230952D02*
X101323809Y-99183333D01*
X101419047Y-99135714D01*
X101561905Y-99135714D01*
X101657143Y-99183333D01*
X101704762Y-99278571D01*
X101704762Y-99802381D01*
X102180952Y-99135714D02*
X102180952Y-100135714D01*
X102180952Y-99183333D02*
X102276190Y-99135714D01*
X102466667Y-99135714D01*
X102561905Y-99183333D01*
X102609524Y-99230952D01*
X102657143Y-99326190D01*
X102657143Y-99611905D01*
X102609524Y-99707143D01*
X102561905Y-99754762D01*
X102466667Y-99802381D01*
X102276190Y-99802381D01*
X102180952Y-99754762D01*
X103514286Y-99135714D02*
X103514286Y-99802381D01*
X103085714Y-99135714D02*
X103085714Y-99659524D01*
X103133333Y-99754762D01*
X103228571Y-99802381D01*
X103371429Y-99802381D01*
X103466667Y-99754762D01*
X103514286Y-99707143D01*
X103847619Y-99135714D02*
X104228571Y-99135714D01*
X103990476Y-98802381D02*
X103990476Y-99659524D01*
X104038095Y-99754762D01*
X104133333Y-99802381D01*
X104228571Y-99802381D01*
X118709524Y-97928571D02*
X118376190Y-97928571D01*
X118376190Y-98452381D02*
X118376190Y-97452381D01*
X118852381Y-97452381D01*
X119233333Y-98452381D02*
X119233333Y-97452381D01*
X119471428Y-97452381D01*
X119614286Y-97500000D01*
X119709524Y-97595238D01*
X119757143Y-97690476D01*
X119804762Y-97880952D01*
X119804762Y-98023810D01*
X119757143Y-98214286D01*
X119709524Y-98309524D01*
X119614286Y-98404762D01*
X119471428Y-98452381D01*
X119233333Y-98452381D01*
X120090476Y-97452381D02*
X120661905Y-97452381D01*
X120376190Y-98452381D02*
X120376190Y-97452381D01*
X121423810Y-97785714D02*
X121423810Y-98452381D01*
X121185714Y-97404762D02*
X120947619Y-98119048D01*
X121566667Y-98119048D01*
X122423810Y-97452381D02*
X121947619Y-97452381D01*
X121900000Y-97928571D01*
X121947619Y-97880952D01*
X122042857Y-97833333D01*
X122280953Y-97833333D01*
X122376191Y-97880952D01*
X122423810Y-97928571D01*
X122471429Y-98023810D01*
X122471429Y-98261905D01*
X122423810Y-98357143D01*
X122376191Y-98404762D01*
X122280953Y-98452381D01*
X122042857Y-98452381D01*
X121947619Y-98404762D01*
X121900000Y-98357143D01*
X122947619Y-98452381D02*
X123138095Y-98452381D01*
X123233334Y-98404762D01*
X123280953Y-98357143D01*
X123376191Y-98214286D01*
X123423810Y-98023810D01*
X123423810Y-97642857D01*
X123376191Y-97547619D01*
X123328572Y-97500000D01*
X123233334Y-97452381D01*
X123042857Y-97452381D01*
X122947619Y-97500000D01*
X122900000Y-97547619D01*
X122852381Y-97642857D01*
X122852381Y-97880952D01*
X122900000Y-97976190D01*
X122947619Y-98023810D01*
X123042857Y-98071429D01*
X123233334Y-98071429D01*
X123328572Y-98023810D01*
X123376191Y-97976190D01*
X123423810Y-97880952D01*
X123852381Y-98452381D02*
X123852381Y-97452381D01*
X124423810Y-98452381D01*
X124423810Y-97452381D01*
X94761905Y-119152381D02*
X94285714Y-119152381D01*
X94285714Y-118152381D01*
X95095238Y-119152381D02*
X95095238Y-118152381D01*
X95428572Y-118866667D01*
X95761905Y-118152381D01*
X95761905Y-119152381D01*
X96190476Y-118247619D02*
X96238095Y-118200000D01*
X96333333Y-118152381D01*
X96571429Y-118152381D01*
X96666667Y-118200000D01*
X96714286Y-118247619D01*
X96761905Y-118342857D01*
X96761905Y-118438095D01*
X96714286Y-118580952D01*
X96142857Y-119152381D01*
X96761905Y-119152381D01*
X97666667Y-118152381D02*
X97190476Y-118152381D01*
X97142857Y-118628571D01*
X97190476Y-118580952D01*
X97285714Y-118533333D01*
X97523810Y-118533333D01*
X97619048Y-118580952D01*
X97666667Y-118628571D01*
X97714286Y-118723810D01*
X97714286Y-118961905D01*
X97666667Y-119057143D01*
X97619048Y-119104762D01*
X97523810Y-119152381D01*
X97285714Y-119152381D01*
X97190476Y-119104762D01*
X97142857Y-119057143D01*
X98190476Y-119152381D02*
X98380952Y-119152381D01*
X98476191Y-119104762D01*
X98523810Y-119057143D01*
X98619048Y-118914286D01*
X98666667Y-118723810D01*
X98666667Y-118342857D01*
X98619048Y-118247619D01*
X98571429Y-118200000D01*
X98476191Y-118152381D01*
X98285714Y-118152381D01*
X98190476Y-118200000D01*
X98142857Y-118247619D01*
X98095238Y-118342857D01*
X98095238Y-118580952D01*
X98142857Y-118676190D01*
X98190476Y-118723810D01*
X98285714Y-118771429D01*
X98476191Y-118771429D01*
X98571429Y-118723810D01*
X98619048Y-118676190D01*
X98666667Y-118580952D01*
X99523810Y-118485714D02*
X99523810Y-119152381D01*
X99285714Y-118104762D02*
X99047619Y-118819048D01*
X99666667Y-118819048D01*
X100047619Y-119152381D02*
X100047619Y-118152381D01*
X100380953Y-118866667D01*
X100714286Y-118152381D01*
X100714286Y-119152381D01*
X127876191Y-121252381D02*
X127876191Y-120252381D01*
X127876191Y-120728571D02*
X128447620Y-120728571D01*
X128447620Y-121252381D02*
X128447620Y-120252381D01*
X128876191Y-120966667D02*
X129352382Y-120966667D01*
X128780953Y-121252381D02*
X129114286Y-120252381D01*
X129447620Y-121252381D01*
X130209525Y-120585714D02*
X130209525Y-121252381D01*
X129971429Y-120204762D02*
X129733334Y-120919048D01*
X130352382Y-120919048D01*
X130590477Y-120252381D02*
X131161906Y-120252381D01*
X130876191Y-121252381D02*
X130876191Y-120252381D01*
X131495239Y-121252381D02*
X131495239Y-120252381D01*
X132685715Y-120347619D02*
X132733334Y-120300000D01*
X132828572Y-120252381D01*
X133066668Y-120252381D01*
X133161906Y-120300000D01*
X133209525Y-120347619D01*
X133257144Y-120442857D01*
X133257144Y-120538095D01*
X133209525Y-120680952D01*
X132638096Y-121252381D01*
X133257144Y-121252381D01*
X133876191Y-120252381D02*
X133971430Y-120252381D01*
X134066668Y-120300000D01*
X134114287Y-120347619D01*
X134161906Y-120442857D01*
X134209525Y-120633333D01*
X134209525Y-120871429D01*
X134161906Y-121061905D01*
X134114287Y-121157143D01*
X134066668Y-121204762D01*
X133971430Y-121252381D01*
X133876191Y-121252381D01*
X133780953Y-121204762D01*
X133733334Y-121157143D01*
X133685715Y-121061905D01*
X133638096Y-120871429D01*
X133638096Y-120633333D01*
X133685715Y-120442857D01*
X133733334Y-120347619D01*
X133780953Y-120300000D01*
X133876191Y-120252381D01*
X135161906Y-121252381D02*
X134590477Y-121252381D01*
X134876191Y-121252381D02*
X134876191Y-120252381D01*
X134780953Y-120395238D01*
X134685715Y-120490476D01*
X134590477Y-120538095D01*
X135733334Y-120680952D02*
X135638096Y-120633333D01*
X135590477Y-120585714D01*
X135542858Y-120490476D01*
X135542858Y-120442857D01*
X135590477Y-120347619D01*
X135638096Y-120300000D01*
X135733334Y-120252381D01*
X135923811Y-120252381D01*
X136019049Y-120300000D01*
X136066668Y-120347619D01*
X136114287Y-120442857D01*
X136114287Y-120490476D01*
X136066668Y-120585714D01*
X136019049Y-120633333D01*
X135923811Y-120680952D01*
X135733334Y-120680952D01*
X135638096Y-120728571D01*
X135590477Y-120776190D01*
X135542858Y-120871429D01*
X135542858Y-121061905D01*
X135590477Y-121157143D01*
X135638096Y-121204762D01*
X135733334Y-121252381D01*
X135923811Y-121252381D01*
X136019049Y-121204762D01*
X136066668Y-121157143D01*
X136114287Y-121061905D01*
X136114287Y-120871429D01*
X136066668Y-120776190D01*
X136019049Y-120728571D01*
X135923811Y-120680952D01*
X136542858Y-121157143D02*
X136590477Y-121204762D01*
X136542858Y-121252381D01*
X136495239Y-121204762D01*
X136542858Y-121157143D01*
X136542858Y-121252381D01*
X137209524Y-120252381D02*
X137304763Y-120252381D01*
X137400001Y-120300000D01*
X137447620Y-120347619D01*
X137495239Y-120442857D01*
X137542858Y-120633333D01*
X137542858Y-120871429D01*
X137495239Y-121061905D01*
X137447620Y-121157143D01*
X137400001Y-121204762D01*
X137304763Y-121252381D01*
X137209524Y-121252381D01*
X137114286Y-121204762D01*
X137066667Y-121157143D01*
X137019048Y-121061905D01*
X136971429Y-120871429D01*
X136971429Y-120633333D01*
X137019048Y-120442857D01*
X137066667Y-120347619D01*
X137114286Y-120300000D01*
X137209524Y-120252381D01*
X137876191Y-120252381D02*
X138495239Y-120252381D01*
X138161905Y-120633333D01*
X138304763Y-120633333D01*
X138400001Y-120680952D01*
X138447620Y-120728571D01*
X138495239Y-120823810D01*
X138495239Y-121061905D01*
X138447620Y-121157143D01*
X138400001Y-121204762D01*
X138304763Y-121252381D01*
X138019048Y-121252381D01*
X137923810Y-121204762D01*
X137876191Y-121157143D01*
X138923810Y-121157143D02*
X138971429Y-121204762D01*
X138923810Y-121252381D01*
X138876191Y-121204762D01*
X138923810Y-121157143D01*
X138923810Y-121252381D01*
D12*
X133857143Y-106925000D02*
X133714286Y-106853571D01*
X133500000Y-106853571D01*
X133285715Y-106925000D01*
X133142857Y-107067857D01*
X133071429Y-107210714D01*
X133000000Y-107496429D01*
X133000000Y-107710714D01*
X133071429Y-107996429D01*
X133142857Y-108139286D01*
X133285715Y-108282143D01*
X133500000Y-108353571D01*
X133642857Y-108353571D01*
X133857143Y-108282143D01*
X133928572Y-108210714D01*
X133928572Y-107710714D01*
X133642857Y-107710714D01*
X134571429Y-108353571D02*
X134571429Y-106853571D01*
X135428572Y-108353571D01*
X135428572Y-106853571D01*
X136142858Y-108353571D02*
X136142858Y-106853571D01*
X136500001Y-106853571D01*
X136714286Y-106925000D01*
X136857144Y-107067857D01*
X136928572Y-107210714D01*
X137000001Y-107496429D01*
X137000001Y-107710714D01*
X136928572Y-107996429D01*
X136857144Y-108139286D01*
X136714286Y-108282143D01*
X136500001Y-108353571D01*
X136142858Y-108353571D01*
X134750001Y-110903571D02*
X134250001Y-110189286D01*
X133892858Y-110903571D02*
X133892858Y-109403571D01*
X134464286Y-109403571D01*
X134607144Y-109475000D01*
X134678572Y-109546429D01*
X134750001Y-109689286D01*
X134750001Y-109903571D01*
X134678572Y-110046429D01*
X134607144Y-110117857D01*
X134464286Y-110189286D01*
X133892858Y-110189286D01*
X135250001Y-109403571D02*
X136250001Y-110903571D01*
X136250001Y-109403571D02*
X135250001Y-110903571D01*
X133857143Y-111953571D02*
X134714286Y-111953571D01*
X134285715Y-113453571D02*
X134285715Y-111953571D01*
X135071429Y-111953571D02*
X136071429Y-113453571D01*
X136071429Y-111953571D02*
X135071429Y-113453571D01*
X133000000Y-114503571D02*
X133500000Y-116003571D01*
X134000000Y-114503571D01*
X134500000Y-116003571D02*
X134500000Y-114503571D01*
X134857143Y-114503571D01*
X135071428Y-114575000D01*
X135214286Y-114717857D01*
X135285714Y-114860714D01*
X135357143Y-115146429D01*
X135357143Y-115360714D01*
X135285714Y-115646429D01*
X135214286Y-115789286D01*
X135071428Y-115932143D01*
X134857143Y-116003571D01*
X134500000Y-116003571D01*
X136000000Y-116003571D02*
X136000000Y-114503571D01*
X136357143Y-114503571D01*
X136571428Y-114575000D01*
X136714286Y-114717857D01*
X136785714Y-114860714D01*
X136857143Y-115146429D01*
X136857143Y-115360714D01*
X136785714Y-115646429D01*
X136714286Y-115789286D01*
X136571428Y-115932143D01*
X136357143Y-116003571D01*
X136000000Y-116003571D01*
D13*
X106710000Y-112250000D02*
X106710000Y-104005000D01*
X106710000Y-104005000D02*
X101890000Y-104005000D01*
X101890000Y-104005000D02*
X101890000Y-112250000D01*
X109650000Y-116590000D02*
X101405000Y-116590000D01*
X101405000Y-116590000D02*
X101405000Y-121410000D01*
X101405000Y-121410000D02*
X109650000Y-121410000D01*
X132130000Y-106370000D02*
X129470000Y-106370000D01*
X132130000Y-114050000D02*
X132130000Y-106370000D01*
X129470000Y-114050000D02*
X129470000Y-106370000D01*
X132130000Y-114050000D02*
X129470000Y-114050000D01*
X132130000Y-115320000D02*
X132130000Y-116650000D01*
X132130000Y-116650000D02*
X130800000Y-116650000D01*
X97500000Y-95050000D02*
X84900000Y-95050000D01*
X84900000Y-95050000D02*
X84900000Y-105400000D01*
X84900000Y-105400000D02*
X85850000Y-105400000D01*
X85850000Y-105400000D02*
X85600000Y-105900000D01*
X85600000Y-105900000D02*
X87500000Y-105900000D01*
X87500000Y-105900000D02*
X87550000Y-105900000D01*
X87550000Y-105900000D02*
X87300000Y-105400000D01*
X87300000Y-105400000D02*
X92700000Y-105400000D01*
X92700000Y-105400000D02*
X92400000Y-105900000D01*
X92400000Y-105900000D02*
X97500000Y-105900000D01*
X97500000Y-105900000D02*
X97500000Y-95050000D01*
X127800000Y-105350000D02*
X140400000Y-105350000D01*
X140400000Y-105350000D02*
X140400000Y-95000000D01*
X140400000Y-95000000D02*
X139450000Y-95000000D01*
X139450000Y-95000000D02*
X139700000Y-94500000D01*
X139700000Y-94500000D02*
X137800000Y-94500000D01*
X137800000Y-94500000D02*
X137750000Y-94500000D01*
X137750000Y-94500000D02*
X138000000Y-95000000D01*
X138000000Y-95000000D02*
X132600000Y-95000000D01*
X132600000Y-95000000D02*
X132900000Y-94500000D01*
X132900000Y-94500000D02*
X127800000Y-94500000D01*
X127800000Y-94500000D02*
X127800000Y-105350000D01*
X124410000Y-105810000D02*
X124410000Y-104550000D01*
X124410000Y-98990000D02*
X124410000Y-100250000D01*
X120650000Y-105810000D02*
X124410000Y-105810000D01*
X118400000Y-98990000D02*
X124410000Y-98990000D01*
X122230000Y-107370000D02*
X122230000Y-107400000D01*
X122230000Y-113830000D02*
X122230000Y-113800000D01*
X115770000Y-113830000D02*
X115770000Y-113800000D01*
X115770000Y-107400000D02*
X115770000Y-107370000D01*
X122230000Y-109300000D02*
X122230000Y-111900000D01*
X115770000Y-107370000D02*
X122230000Y-107370000D01*
X115770000Y-109300000D02*
X115770000Y-111900000D01*
X115770000Y-113830000D02*
X122230000Y-113830000D01*
D14*
X95820000Y-115969999D02*
X95870000Y-115969999D01*
X95820000Y-111819999D02*
X95965000Y-111819999D01*
X100970000Y-111819999D02*
X100825000Y-111819999D01*
X100970000Y-115969999D02*
X100825000Y-115969999D01*
X95820000Y-115969999D02*
X95820000Y-111819999D01*
X100970000Y-115969999D02*
X100970000Y-111819999D01*
X95870000Y-115969999D02*
X95870000Y-117369999D01*
D13*
X95500000Y-106900000D02*
X95500000Y-108900000D01*
X95500000Y-108900000D02*
X99350000Y-108900000D01*
X95500000Y-106900000D02*
X99350000Y-106900000D01*
X132000000Y-118005000D02*
X129530000Y-118005000D01*
X129530000Y-118005000D02*
X129530000Y-119395000D01*
X129530000Y-119395000D02*
X132000000Y-119395000D01*
X134783572Y-118189999D02*
X135223572Y-118189999D01*
X134783572Y-119209999D02*
X135223572Y-119209999D01*
X127090000Y-109520000D02*
X127090000Y-109080000D01*
X128110000Y-109520000D02*
X128110000Y-109080000D01*
X111720000Y-113310000D02*
X111280000Y-113310000D01*
X111720000Y-112290000D02*
X111280000Y-112290000D01*
X113720000Y-100610000D02*
X113280000Y-100610000D01*
X113720000Y-99590000D02*
X113280000Y-99590000D01*
X116810000Y-100780000D02*
X116810000Y-101220000D01*
X115790000Y-100780000D02*
X115790000Y-101220000D01*
X105100000Y-102500000D02*
X105100000Y-100500000D01*
X105100000Y-100500000D02*
X101250000Y-100500000D01*
X105100000Y-102500000D02*
X101250000Y-102500000D01*
M02*
