M48
;DRILL file {KiCad 4.0.7} date 03/28/18 09:41:20
;FORMAT={2:4/ absolute / inch / suppress leading zeros}
FMAT,2
INCH,TZ
T1C0.016
T2C0.039
T3C0.052
%
G90
G05
M72
T1
X33701Y-37559
X33701Y-38386
X33701Y-39331
X33701Y-40276
X33701Y-41102
X33701Y-41929
X33701Y-42756
X33701Y-43583
X33701Y-44488
X33701Y-45315
X33701Y-46142
X33701Y-46969
X33701Y-47795
X34449Y-37559
X34685Y-47795
X35276Y-37559
X35512Y-47795
X36102Y-37559
X36339Y-47795
X36929Y-37559
X37165Y-47756
X37756Y-37559
X38228Y-44606
X38228Y-45157
X38583Y-37559
X38661Y-47756
X38701Y-39646
X38701Y-40197
X38819Y-44606
X38819Y-45157
X38976Y-39921
X39252Y-39646
X39252Y-40197
X39331Y-47756
X39409Y-37559
X39409Y-44606
X39409Y-45157
X39528Y-42480
X40157Y-47756
X40197Y-44016
X40236Y-37559
X40984Y-47756
X41063Y-37559
X41063Y-43189
X41063Y-44843
X41378Y-46457
X41378Y-46850
X41614Y-37520
X41693Y-46457
X41693Y-46850
X41732Y-39606
X41732Y-40157
X41811Y-47756
X42008Y-39882
X42283Y-39606
X42283Y-40157
X42638Y-47756
X42953Y-37520
X42992Y-45709
X43465Y-45276
X43937Y-45000
X44213Y-37520
X44528Y-40354
X44764Y-45000
X45591Y-45000
X46417Y-45000
X47244Y-45000
X48071Y-45000
X48898Y-41535
X48898Y-45000
X49016Y-43819
X49685Y-37480
X49724Y-45000
X50236Y-45276
X50236Y-46102
X50236Y-46929
X50236Y-47756
X50512Y-37480
X50748Y-42126
X50787Y-47756
X51339Y-37480
X51614Y-47756
X52165Y-37480
X52441Y-47756
X52992Y-37480
X53268Y-47756
X53819Y-37480
X54094Y-47756
X54921Y-37520
X54921Y-38346
X54921Y-39173
X54921Y-40236
X54921Y-41063
X54921Y-41890
X54921Y-43543
X54921Y-44449
X54921Y-45276
X54921Y-46102
X54921Y-46929
X54921Y-47756
T2
X51496Y-42402
X51496Y-43402
X51496Y-44402
X51496Y-45402
T3
X35906Y-38465
X35906Y-40433
X52795Y-38465
X52795Y-40433
T0
M30
