G04 #@! TF.FileFunction,Copper,L2,Bot,Signal*
%FSLAX46Y46*%
G04 Gerber Fmt 4.6, Leading zero omitted, Abs format (unit mm)*
G04 Created by KiCad (PCBNEW 4.0.7) date 03/28/18 09:41:18*
%MOMM*%
%LPD*%
G01*
G04 APERTURE LIST*
%ADD10C,0.100000*%
%ADD11R,1.700000X1.700000*%
%ADD12O,1.700000X1.700000*%
%ADD13R,3.960000X1.980000*%
%ADD14O,3.960000X1.980000*%
%ADD15R,2.500000X1.100000*%
%ADD16R,1.100000X2.500000*%
%ADD17R,0.845000X1.000000*%
%ADD18C,0.600000*%
%ADD19C,0.500000*%
%ADD20C,0.250000*%
%ADD21C,0.300000*%
%ADD22C,0.200000*%
%ADD23C,1.000000*%
%ADD24C,0.254000*%
G04 APERTURE END LIST*
D10*
D11*
X130800000Y-115320000D03*
D12*
X130800000Y-112780000D03*
X130800000Y-110240000D03*
X130800000Y-107700000D03*
D13*
X91200000Y-97700000D03*
D14*
X91200000Y-102700000D03*
D13*
X134100000Y-102700000D03*
D14*
X134100000Y-97700000D03*
D15*
X111300000Y-112500000D03*
X111300000Y-110500000D03*
X111300000Y-108500000D03*
X111300000Y-106500000D03*
X111300000Y-104500000D03*
X111300000Y-102500000D03*
X111300000Y-100500000D03*
X111300000Y-98500000D03*
X126700000Y-98500000D03*
X126700000Y-100500000D03*
X126700000Y-102500000D03*
X126700000Y-104500000D03*
X126700000Y-106500000D03*
X126700000Y-108500000D03*
X126700000Y-110500000D03*
X126700000Y-112500000D03*
D16*
X113990000Y-96800000D03*
X115990000Y-96800000D03*
X117990000Y-96800000D03*
X119990000Y-96800000D03*
X121990000Y-96800000D03*
X123990000Y-96800000D03*
D17*
X107962500Y-112500000D03*
X106037500Y-112500000D03*
X107962500Y-108500000D03*
X106037500Y-108500000D03*
D18*
X97100000Y-113300000D03*
X97100000Y-114700000D03*
X98600000Y-113300000D03*
X100100000Y-113300000D03*
X98600000Y-114700000D03*
X100100000Y-114700000D03*
X85600000Y-99900000D03*
X98300000Y-102100000D03*
X99700000Y-102100000D03*
X99700000Y-100700000D03*
X98300000Y-100700000D03*
X99000000Y-101400000D03*
X85600000Y-97500000D03*
X92300000Y-121400000D03*
X99900000Y-121300000D03*
X102000000Y-121300000D03*
X104100000Y-121300000D03*
X106200000Y-121300000D03*
X108300000Y-121300000D03*
X94400000Y-121300000D03*
X98200000Y-121300000D03*
X85600000Y-121400000D03*
X139500000Y-97400000D03*
X139500000Y-102200000D03*
X139500000Y-95300000D03*
X139500000Y-99500000D03*
X139500000Y-106400000D03*
X139500000Y-104300000D03*
X130400000Y-95200000D03*
X128300000Y-95200000D03*
X134600000Y-95200000D03*
X132500000Y-95200000D03*
X136700000Y-95200000D03*
X126200000Y-95200000D03*
X139500000Y-119200000D03*
X139500000Y-117100000D03*
X139500000Y-112900000D03*
X139500000Y-115000000D03*
X139500000Y-110600000D03*
X85600000Y-104400000D03*
X85600000Y-106500000D03*
X85600000Y-108600000D03*
X85600000Y-110700000D03*
X85600000Y-119300000D03*
X85600000Y-117200000D03*
X85600000Y-115100000D03*
X85600000Y-113000000D03*
X88100000Y-121400000D03*
X90200000Y-121400000D03*
X129000000Y-121300000D03*
X131100000Y-121300000D03*
X139500000Y-121300000D03*
X133200000Y-121300000D03*
X135300000Y-121300000D03*
X137400000Y-121300000D03*
X110400000Y-115000000D03*
X127600000Y-121300000D03*
X127600000Y-119200000D03*
X127600000Y-117100000D03*
X127600000Y-115000000D03*
X126300000Y-114300000D03*
X124200000Y-114300000D03*
X122100000Y-114300000D03*
X120000000Y-114300000D03*
X117900000Y-114300000D03*
X115800000Y-114300000D03*
X113700000Y-114300000D03*
X111600000Y-114300000D03*
X109100000Y-95300000D03*
X112300000Y-95300000D03*
X89600000Y-95400000D03*
X87500000Y-95400000D03*
X100100000Y-95400000D03*
X102200000Y-95400000D03*
X93800000Y-95400000D03*
X91700000Y-95400000D03*
X98000000Y-95400000D03*
X95900000Y-95400000D03*
X105700000Y-95300000D03*
X85600000Y-102300000D03*
X85600000Y-95400000D03*
X104300000Y-95400000D03*
X100400000Y-107900000D03*
X104300000Y-109700000D03*
X104300000Y-113900000D03*
X102100000Y-111800000D03*
X109200000Y-116100000D03*
X106000000Y-102000000D03*
X106000000Y-100600000D03*
X107400000Y-102000000D03*
X107400000Y-100600000D03*
X106700000Y-101300000D03*
X124200000Y-105500000D03*
X105900000Y-119000000D03*
X105900000Y-118000000D03*
X105100000Y-118000000D03*
X105100000Y-119000000D03*
X124500000Y-111300000D03*
X128900000Y-107000000D03*
X113100000Y-102500000D03*
D19*
X94500000Y-102100000D02*
X105900000Y-102100000D01*
D20*
X91200000Y-102700000D02*
X93900000Y-102700000D01*
X93900000Y-102700000D02*
X94500000Y-102100000D01*
D21*
X98200000Y-121300000D02*
X98200000Y-120200000D01*
X98200000Y-120200000D02*
X97400000Y-119400000D01*
X97400000Y-119400000D02*
X94400000Y-119400000D01*
X94400000Y-119400000D02*
X94400000Y-121300000D01*
D19*
X98300000Y-102100000D02*
X98300000Y-100700000D01*
X99000000Y-101400000D02*
X98300000Y-100700000D01*
X98300000Y-100700000D02*
X99700000Y-100700000D01*
X99000000Y-101400000D02*
X99700000Y-102100000D01*
X99700000Y-100700000D02*
X99700000Y-102100000D01*
X99700000Y-102100000D02*
X98300000Y-102100000D01*
X99700000Y-100700000D02*
X98300000Y-102100000D01*
D22*
X94300000Y-121400000D02*
X94400000Y-121300000D01*
X85600000Y-121400000D02*
X94300000Y-121400000D01*
X139500000Y-106400000D02*
X139500000Y-105975736D01*
X139500000Y-105975736D02*
X139500000Y-95300000D01*
X139500000Y-119200000D02*
X139500000Y-118775736D01*
X139500000Y-118775736D02*
X139500000Y-110600000D01*
X129000000Y-121300000D02*
X139500000Y-121300000D01*
X127600000Y-115000000D02*
X127600000Y-121300000D01*
X126300000Y-114300000D02*
X125875736Y-114300000D01*
X125875736Y-114300000D02*
X124200000Y-114300000D01*
X111600000Y-114300000D02*
X124200000Y-114300000D01*
X110400000Y-114575736D02*
X110675736Y-114300000D01*
X110675736Y-114300000D02*
X111600000Y-114300000D01*
X110400000Y-115000000D02*
X110400000Y-114575736D01*
X108600000Y-97300000D02*
X109100000Y-96800000D01*
X109100000Y-96800000D02*
X109100000Y-95500000D01*
X106100000Y-97300000D02*
X108600000Y-97300000D01*
X105700000Y-96900000D02*
X106100000Y-97300000D01*
X105700000Y-95500000D02*
X105700000Y-96900000D01*
X104300000Y-95400000D02*
X85600000Y-95400000D01*
D19*
X105900000Y-102100000D02*
X106000000Y-102000000D01*
X106700000Y-101300000D02*
X106000000Y-100600000D01*
X107400000Y-100600000D02*
X107400000Y-102000000D01*
X106000000Y-100600000D02*
X107400000Y-100600000D01*
X106000000Y-102000000D02*
X106000000Y-100600000D01*
X107400000Y-102000000D02*
X106000000Y-102000000D01*
X106700000Y-101300000D02*
X107400000Y-102000000D01*
X107400000Y-100600000D02*
X106000000Y-102000000D01*
D23*
X105900000Y-119000000D02*
X105900000Y-118000000D01*
X105100000Y-119000000D02*
X105900000Y-119000000D01*
X105900000Y-118000000D02*
X105100000Y-118000000D01*
X105100000Y-118000000D02*
X105100000Y-119000000D01*
X124200000Y-105500000D02*
X124200000Y-100800000D01*
X124200000Y-100800000D02*
X122649999Y-99249999D01*
X122649999Y-99249999D02*
X112749999Y-99249999D01*
X112749999Y-99249999D02*
X112000000Y-98500000D01*
X106037500Y-108500000D02*
X106037500Y-112500000D01*
X109000000Y-98900000D02*
X109400000Y-98500000D01*
X109400000Y-98500000D02*
X112000000Y-98500000D01*
X109000000Y-104037500D02*
X109000000Y-98900000D01*
X106037500Y-108500000D02*
X106037500Y-107000000D01*
X106037500Y-107000000D02*
X109000000Y-104037500D01*
X106037500Y-112500000D02*
X106037500Y-117862500D01*
X106037500Y-117862500D02*
X105900000Y-118000000D01*
D19*
X112000000Y-100500000D02*
X122000000Y-100500000D01*
X122000000Y-100500000D02*
X122800000Y-101300000D01*
X122800000Y-101300000D02*
X122800000Y-106100000D01*
X122800000Y-106100000D02*
X124500000Y-107800000D01*
X124500000Y-107800000D02*
X124500000Y-111300000D01*
X126000000Y-112500000D02*
X130520000Y-112500000D01*
X130520000Y-112500000D02*
X130800000Y-112780000D01*
X126000000Y-110500000D02*
X130540000Y-110500000D01*
X130540000Y-110500000D02*
X130800000Y-110240000D01*
X107962500Y-112500000D02*
X112000000Y-112500000D01*
X107962500Y-108500000D02*
X112000000Y-108500000D01*
X128900000Y-107000000D02*
X128900000Y-105000000D01*
X128900000Y-105000000D02*
X128400000Y-104500000D01*
X128400000Y-104500000D02*
X126000000Y-104500000D01*
X113100000Y-102500000D02*
X112000000Y-102500000D01*
D24*
G36*
X105898000Y-96300000D02*
X105951437Y-96568644D01*
X106103611Y-96796389D01*
X106331356Y-96948563D01*
X106600000Y-97002000D01*
X108100000Y-97002000D01*
X108368644Y-96948563D01*
X108596389Y-96796389D01*
X108748563Y-96568644D01*
X108802000Y-96300000D01*
X108802000Y-95002000D01*
X113133733Y-95002000D01*
X112994247Y-95091757D01*
X112851083Y-95301283D01*
X112800717Y-95550000D01*
X112800717Y-97362450D01*
X112798717Y-97361083D01*
X112550000Y-97310717D01*
X110050000Y-97310717D01*
X109817648Y-97354437D01*
X109788800Y-97373000D01*
X109400000Y-97373000D01*
X109040270Y-97444555D01*
X108968715Y-97458788D01*
X108603090Y-97703091D01*
X108203091Y-98103091D01*
X107958788Y-98468716D01*
X107873000Y-98900000D01*
X107873000Y-103570681D01*
X105240591Y-106203091D01*
X104996288Y-106568716D01*
X104910500Y-107000000D01*
X104910500Y-116910694D01*
X104668716Y-116958788D01*
X104303091Y-117203091D01*
X104058788Y-117568716D01*
X103973000Y-118000000D01*
X103973000Y-119000000D01*
X104058788Y-119431284D01*
X104303091Y-119796909D01*
X104668716Y-120041212D01*
X105100000Y-120127000D01*
X105900000Y-120127000D01*
X106331284Y-120041212D01*
X106696909Y-119796909D01*
X106941212Y-119431284D01*
X107027000Y-119000000D01*
X107027000Y-118371177D01*
X107078712Y-118293784D01*
X107164500Y-117862500D01*
X107164500Y-113502289D01*
X107291283Y-113588917D01*
X107540000Y-113639283D01*
X108385000Y-113639283D01*
X108617352Y-113595563D01*
X108830753Y-113458243D01*
X108886264Y-113377000D01*
X109515341Y-113377000D01*
X109591757Y-113495753D01*
X109801283Y-113638917D01*
X110050000Y-113689283D01*
X112550000Y-113689283D01*
X112782352Y-113645563D01*
X112995753Y-113508243D01*
X113138917Y-113298717D01*
X113189283Y-113050000D01*
X113189283Y-111950000D01*
X113145563Y-111717648D01*
X113008243Y-111504247D01*
X113001590Y-111499701D01*
X113138917Y-111298717D01*
X113189283Y-111050000D01*
X113189283Y-109950000D01*
X113145563Y-109717648D01*
X113008243Y-109504247D01*
X113001590Y-109499701D01*
X113138917Y-109298717D01*
X113189283Y-109050000D01*
X113189283Y-107950000D01*
X113145563Y-107717648D01*
X113008243Y-107504247D01*
X113001590Y-107499701D01*
X113138917Y-107298717D01*
X113189283Y-107050000D01*
X113189283Y-105950000D01*
X113145563Y-105717648D01*
X113008243Y-105504247D01*
X113001590Y-105499701D01*
X113138917Y-105298717D01*
X113189283Y-105050000D01*
X113189283Y-103950000D01*
X113145563Y-103717648D01*
X113008243Y-103504247D01*
X113001590Y-103499701D01*
X113051293Y-103426958D01*
X113283583Y-103427161D01*
X113624417Y-103286331D01*
X113885414Y-103025789D01*
X114026839Y-102685201D01*
X114027161Y-102316417D01*
X113886331Y-101975583D01*
X113625789Y-101714586D01*
X113285201Y-101573161D01*
X113052457Y-101572958D01*
X113008243Y-101504247D01*
X113001590Y-101499701D01*
X113085428Y-101377000D01*
X121636734Y-101377000D01*
X121923000Y-101663266D01*
X121923000Y-106100000D01*
X121989758Y-106435613D01*
X122179867Y-106720133D01*
X123623000Y-108163266D01*
X123623000Y-110994774D01*
X123573161Y-111114799D01*
X123572839Y-111483583D01*
X123713669Y-111824417D01*
X123974211Y-112085414D01*
X124314799Y-112226839D01*
X124683583Y-112227161D01*
X124810717Y-112174630D01*
X124810717Y-113050000D01*
X124854437Y-113282352D01*
X124991757Y-113495753D01*
X125201283Y-113638917D01*
X125450000Y-113689283D01*
X127950000Y-113689283D01*
X128182352Y-113645563D01*
X128395753Y-113508243D01*
X128485428Y-113377000D01*
X129427727Y-113377000D01*
X129726667Y-113824397D01*
X129783120Y-113862118D01*
X129717648Y-113874437D01*
X129504247Y-114011757D01*
X129361083Y-114221283D01*
X129310717Y-114470000D01*
X129310717Y-116170000D01*
X129354437Y-116402352D01*
X129491757Y-116615753D01*
X129701283Y-116758917D01*
X129950000Y-116809283D01*
X131650000Y-116809283D01*
X131882352Y-116765563D01*
X132095753Y-116628243D01*
X132238917Y-116418717D01*
X132289283Y-116170000D01*
X132289283Y-114470000D01*
X132245563Y-114237648D01*
X132108243Y-114024247D01*
X131898717Y-113881083D01*
X131814131Y-113863954D01*
X131873333Y-113824397D01*
X132193506Y-113345223D01*
X132305936Y-112780000D01*
X132193506Y-112214777D01*
X131873333Y-111735603D01*
X131535693Y-111510000D01*
X131873333Y-111284397D01*
X132193506Y-110805223D01*
X132305936Y-110240000D01*
X132193506Y-109674777D01*
X131873333Y-109195603D01*
X131530061Y-108966236D01*
X131681358Y-108895183D01*
X132071645Y-108466924D01*
X132241476Y-108056890D01*
X132120155Y-107827000D01*
X130927000Y-107827000D01*
X130927000Y-107847000D01*
X130673000Y-107847000D01*
X130673000Y-107827000D01*
X130653000Y-107827000D01*
X130653000Y-107573000D01*
X130673000Y-107573000D01*
X130673000Y-106379181D01*
X130927000Y-106379181D01*
X130927000Y-107573000D01*
X132120155Y-107573000D01*
X132241476Y-107343110D01*
X132071645Y-106933076D01*
X131681358Y-106504817D01*
X131156892Y-106258514D01*
X130927000Y-106379181D01*
X130673000Y-106379181D01*
X130443108Y-106258514D01*
X129918642Y-106504817D01*
X129777000Y-106660240D01*
X129777000Y-105000005D01*
X129777001Y-105000000D01*
X129710242Y-104664387D01*
X129649072Y-104572839D01*
X129520133Y-104379867D01*
X129520130Y-104379865D01*
X129020133Y-103879867D01*
X128735613Y-103689758D01*
X128497085Y-103642312D01*
X128408243Y-103504247D01*
X128401590Y-103499701D01*
X128538917Y-103298717D01*
X128589283Y-103050000D01*
X128589283Y-101950000D01*
X128545563Y-101717648D01*
X128540642Y-101710000D01*
X131480717Y-101710000D01*
X131480717Y-103690000D01*
X131524437Y-103922352D01*
X131661757Y-104135753D01*
X131871283Y-104278917D01*
X132120000Y-104329283D01*
X136080000Y-104329283D01*
X136312352Y-104285563D01*
X136525753Y-104148243D01*
X136668917Y-103938717D01*
X136719283Y-103690000D01*
X136719283Y-101710000D01*
X136675563Y-101477648D01*
X136538243Y-101264247D01*
X136328717Y-101121083D01*
X136080000Y-101070717D01*
X132120000Y-101070717D01*
X131887648Y-101114437D01*
X131674247Y-101251757D01*
X131531083Y-101461283D01*
X131480717Y-101710000D01*
X128540642Y-101710000D01*
X128408243Y-101504247D01*
X128401590Y-101499701D01*
X128538917Y-101298717D01*
X128589283Y-101050000D01*
X128589283Y-99950000D01*
X128545563Y-99717648D01*
X128408243Y-99504247D01*
X128399650Y-99498376D01*
X128488327Y-99409699D01*
X128585000Y-99176310D01*
X128585000Y-98785750D01*
X128426250Y-98627000D01*
X126827000Y-98627000D01*
X126827000Y-98647000D01*
X126573000Y-98647000D01*
X126573000Y-98627000D01*
X126553000Y-98627000D01*
X126553000Y-98373000D01*
X126573000Y-98373000D01*
X126573000Y-97473750D01*
X126827000Y-97473750D01*
X126827000Y-98373000D01*
X128426250Y-98373000D01*
X128585000Y-98214250D01*
X128585000Y-97823690D01*
X128533766Y-97700000D01*
X131441926Y-97700000D01*
X131565013Y-98318799D01*
X131915534Y-98843392D01*
X132440127Y-99193913D01*
X133058926Y-99317000D01*
X135141074Y-99317000D01*
X135759873Y-99193913D01*
X136284466Y-98843392D01*
X136634987Y-98318799D01*
X136758074Y-97700000D01*
X136634987Y-97081201D01*
X136284466Y-96556608D01*
X135759873Y-96206087D01*
X135141074Y-96083000D01*
X133058926Y-96083000D01*
X132440127Y-96206087D01*
X131915534Y-96556608D01*
X131565013Y-97081201D01*
X131441926Y-97700000D01*
X128533766Y-97700000D01*
X128488327Y-97590301D01*
X128309698Y-97411673D01*
X128076309Y-97315000D01*
X126985750Y-97315000D01*
X126827000Y-97473750D01*
X126573000Y-97473750D01*
X126414250Y-97315000D01*
X125323691Y-97315000D01*
X125179283Y-97374816D01*
X125179283Y-95550000D01*
X125135563Y-95317648D01*
X124998243Y-95104247D01*
X124848601Y-95002000D01*
X139898000Y-95002000D01*
X139898000Y-106798000D01*
X138600000Y-106798000D01*
X138331356Y-106851437D01*
X138103611Y-107003611D01*
X137951437Y-107231356D01*
X137898000Y-107500000D01*
X137898000Y-109100000D01*
X137951437Y-109368644D01*
X138103611Y-109596389D01*
X138331356Y-109748563D01*
X138600000Y-109802000D01*
X139898000Y-109802000D01*
X139898000Y-121598000D01*
X127327000Y-121598000D01*
X127327000Y-114600000D01*
X127318315Y-114553841D01*
X127291035Y-114511447D01*
X127249410Y-114483006D01*
X127200000Y-114473000D01*
X110800000Y-114473000D01*
X110753841Y-114481685D01*
X110711447Y-114508965D01*
X110683006Y-114550590D01*
X110673000Y-114600000D01*
X110673000Y-121598000D01*
X97802000Y-121598000D01*
X97802000Y-120300000D01*
X97748563Y-120031356D01*
X97596389Y-119803611D01*
X97368644Y-119651437D01*
X97100000Y-119598000D01*
X95600000Y-119598000D01*
X95331356Y-119651437D01*
X95103611Y-119803611D01*
X94951437Y-120031356D01*
X94898000Y-120300000D01*
X94898000Y-121598000D01*
X85302000Y-121598000D01*
X85302000Y-103078865D01*
X88629782Y-103078865D01*
X88660095Y-103204528D01*
X88971149Y-103759246D01*
X89470807Y-104152703D01*
X90083000Y-104325000D01*
X91073000Y-104325000D01*
X91073000Y-102827000D01*
X91327000Y-102827000D01*
X91327000Y-104325000D01*
X92317000Y-104325000D01*
X92929193Y-104152703D01*
X93428851Y-103759246D01*
X93739905Y-103204528D01*
X93770218Y-103078865D01*
X93650740Y-102827000D01*
X91327000Y-102827000D01*
X91073000Y-102827000D01*
X88749260Y-102827000D01*
X88629782Y-103078865D01*
X85302000Y-103078865D01*
X85302000Y-102321135D01*
X88629782Y-102321135D01*
X88749260Y-102573000D01*
X91073000Y-102573000D01*
X91073000Y-101075000D01*
X91327000Y-101075000D01*
X91327000Y-102573000D01*
X93650740Y-102573000D01*
X93770218Y-102321135D01*
X93739905Y-102195472D01*
X93428851Y-101640754D01*
X92929193Y-101247297D01*
X92317000Y-101075000D01*
X91327000Y-101075000D01*
X91073000Y-101075000D01*
X90083000Y-101075000D01*
X89470807Y-101247297D01*
X88971149Y-101640754D01*
X88660095Y-102195472D01*
X88629782Y-102321135D01*
X85302000Y-102321135D01*
X85302000Y-96710000D01*
X88580717Y-96710000D01*
X88580717Y-98690000D01*
X88624437Y-98922352D01*
X88761757Y-99135753D01*
X88971283Y-99278917D01*
X89220000Y-99329283D01*
X93180000Y-99329283D01*
X93412352Y-99285563D01*
X93625753Y-99148243D01*
X93768917Y-98938717D01*
X93819283Y-98690000D01*
X93819283Y-96710000D01*
X93775563Y-96477648D01*
X93638243Y-96264247D01*
X93428717Y-96121083D01*
X93180000Y-96070717D01*
X89220000Y-96070717D01*
X88987648Y-96114437D01*
X88774247Y-96251757D01*
X88631083Y-96461283D01*
X88580717Y-96710000D01*
X85302000Y-96710000D01*
X85302000Y-95002000D01*
X105898000Y-95002000D01*
X105898000Y-96300000D01*
X105898000Y-96300000D01*
G37*
X105898000Y-96300000D02*
X105951437Y-96568644D01*
X106103611Y-96796389D01*
X106331356Y-96948563D01*
X106600000Y-97002000D01*
X108100000Y-97002000D01*
X108368644Y-96948563D01*
X108596389Y-96796389D01*
X108748563Y-96568644D01*
X108802000Y-96300000D01*
X108802000Y-95002000D01*
X113133733Y-95002000D01*
X112994247Y-95091757D01*
X112851083Y-95301283D01*
X112800717Y-95550000D01*
X112800717Y-97362450D01*
X112798717Y-97361083D01*
X112550000Y-97310717D01*
X110050000Y-97310717D01*
X109817648Y-97354437D01*
X109788800Y-97373000D01*
X109400000Y-97373000D01*
X109040270Y-97444555D01*
X108968715Y-97458788D01*
X108603090Y-97703091D01*
X108203091Y-98103091D01*
X107958788Y-98468716D01*
X107873000Y-98900000D01*
X107873000Y-103570681D01*
X105240591Y-106203091D01*
X104996288Y-106568716D01*
X104910500Y-107000000D01*
X104910500Y-116910694D01*
X104668716Y-116958788D01*
X104303091Y-117203091D01*
X104058788Y-117568716D01*
X103973000Y-118000000D01*
X103973000Y-119000000D01*
X104058788Y-119431284D01*
X104303091Y-119796909D01*
X104668716Y-120041212D01*
X105100000Y-120127000D01*
X105900000Y-120127000D01*
X106331284Y-120041212D01*
X106696909Y-119796909D01*
X106941212Y-119431284D01*
X107027000Y-119000000D01*
X107027000Y-118371177D01*
X107078712Y-118293784D01*
X107164500Y-117862500D01*
X107164500Y-113502289D01*
X107291283Y-113588917D01*
X107540000Y-113639283D01*
X108385000Y-113639283D01*
X108617352Y-113595563D01*
X108830753Y-113458243D01*
X108886264Y-113377000D01*
X109515341Y-113377000D01*
X109591757Y-113495753D01*
X109801283Y-113638917D01*
X110050000Y-113689283D01*
X112550000Y-113689283D01*
X112782352Y-113645563D01*
X112995753Y-113508243D01*
X113138917Y-113298717D01*
X113189283Y-113050000D01*
X113189283Y-111950000D01*
X113145563Y-111717648D01*
X113008243Y-111504247D01*
X113001590Y-111499701D01*
X113138917Y-111298717D01*
X113189283Y-111050000D01*
X113189283Y-109950000D01*
X113145563Y-109717648D01*
X113008243Y-109504247D01*
X113001590Y-109499701D01*
X113138917Y-109298717D01*
X113189283Y-109050000D01*
X113189283Y-107950000D01*
X113145563Y-107717648D01*
X113008243Y-107504247D01*
X113001590Y-107499701D01*
X113138917Y-107298717D01*
X113189283Y-107050000D01*
X113189283Y-105950000D01*
X113145563Y-105717648D01*
X113008243Y-105504247D01*
X113001590Y-105499701D01*
X113138917Y-105298717D01*
X113189283Y-105050000D01*
X113189283Y-103950000D01*
X113145563Y-103717648D01*
X113008243Y-103504247D01*
X113001590Y-103499701D01*
X113051293Y-103426958D01*
X113283583Y-103427161D01*
X113624417Y-103286331D01*
X113885414Y-103025789D01*
X114026839Y-102685201D01*
X114027161Y-102316417D01*
X113886331Y-101975583D01*
X113625789Y-101714586D01*
X113285201Y-101573161D01*
X113052457Y-101572958D01*
X113008243Y-101504247D01*
X113001590Y-101499701D01*
X113085428Y-101377000D01*
X121636734Y-101377000D01*
X121923000Y-101663266D01*
X121923000Y-106100000D01*
X121989758Y-106435613D01*
X122179867Y-106720133D01*
X123623000Y-108163266D01*
X123623000Y-110994774D01*
X123573161Y-111114799D01*
X123572839Y-111483583D01*
X123713669Y-111824417D01*
X123974211Y-112085414D01*
X124314799Y-112226839D01*
X124683583Y-112227161D01*
X124810717Y-112174630D01*
X124810717Y-113050000D01*
X124854437Y-113282352D01*
X124991757Y-113495753D01*
X125201283Y-113638917D01*
X125450000Y-113689283D01*
X127950000Y-113689283D01*
X128182352Y-113645563D01*
X128395753Y-113508243D01*
X128485428Y-113377000D01*
X129427727Y-113377000D01*
X129726667Y-113824397D01*
X129783120Y-113862118D01*
X129717648Y-113874437D01*
X129504247Y-114011757D01*
X129361083Y-114221283D01*
X129310717Y-114470000D01*
X129310717Y-116170000D01*
X129354437Y-116402352D01*
X129491757Y-116615753D01*
X129701283Y-116758917D01*
X129950000Y-116809283D01*
X131650000Y-116809283D01*
X131882352Y-116765563D01*
X132095753Y-116628243D01*
X132238917Y-116418717D01*
X132289283Y-116170000D01*
X132289283Y-114470000D01*
X132245563Y-114237648D01*
X132108243Y-114024247D01*
X131898717Y-113881083D01*
X131814131Y-113863954D01*
X131873333Y-113824397D01*
X132193506Y-113345223D01*
X132305936Y-112780000D01*
X132193506Y-112214777D01*
X131873333Y-111735603D01*
X131535693Y-111510000D01*
X131873333Y-111284397D01*
X132193506Y-110805223D01*
X132305936Y-110240000D01*
X132193506Y-109674777D01*
X131873333Y-109195603D01*
X131530061Y-108966236D01*
X131681358Y-108895183D01*
X132071645Y-108466924D01*
X132241476Y-108056890D01*
X132120155Y-107827000D01*
X130927000Y-107827000D01*
X130927000Y-107847000D01*
X130673000Y-107847000D01*
X130673000Y-107827000D01*
X130653000Y-107827000D01*
X130653000Y-107573000D01*
X130673000Y-107573000D01*
X130673000Y-106379181D01*
X130927000Y-106379181D01*
X130927000Y-107573000D01*
X132120155Y-107573000D01*
X132241476Y-107343110D01*
X132071645Y-106933076D01*
X131681358Y-106504817D01*
X131156892Y-106258514D01*
X130927000Y-106379181D01*
X130673000Y-106379181D01*
X130443108Y-106258514D01*
X129918642Y-106504817D01*
X129777000Y-106660240D01*
X129777000Y-105000005D01*
X129777001Y-105000000D01*
X129710242Y-104664387D01*
X129649072Y-104572839D01*
X129520133Y-104379867D01*
X129520130Y-104379865D01*
X129020133Y-103879867D01*
X128735613Y-103689758D01*
X128497085Y-103642312D01*
X128408243Y-103504247D01*
X128401590Y-103499701D01*
X128538917Y-103298717D01*
X128589283Y-103050000D01*
X128589283Y-101950000D01*
X128545563Y-101717648D01*
X128540642Y-101710000D01*
X131480717Y-101710000D01*
X131480717Y-103690000D01*
X131524437Y-103922352D01*
X131661757Y-104135753D01*
X131871283Y-104278917D01*
X132120000Y-104329283D01*
X136080000Y-104329283D01*
X136312352Y-104285563D01*
X136525753Y-104148243D01*
X136668917Y-103938717D01*
X136719283Y-103690000D01*
X136719283Y-101710000D01*
X136675563Y-101477648D01*
X136538243Y-101264247D01*
X136328717Y-101121083D01*
X136080000Y-101070717D01*
X132120000Y-101070717D01*
X131887648Y-101114437D01*
X131674247Y-101251757D01*
X131531083Y-101461283D01*
X131480717Y-101710000D01*
X128540642Y-101710000D01*
X128408243Y-101504247D01*
X128401590Y-101499701D01*
X128538917Y-101298717D01*
X128589283Y-101050000D01*
X128589283Y-99950000D01*
X128545563Y-99717648D01*
X128408243Y-99504247D01*
X128399650Y-99498376D01*
X128488327Y-99409699D01*
X128585000Y-99176310D01*
X128585000Y-98785750D01*
X128426250Y-98627000D01*
X126827000Y-98627000D01*
X126827000Y-98647000D01*
X126573000Y-98647000D01*
X126573000Y-98627000D01*
X126553000Y-98627000D01*
X126553000Y-98373000D01*
X126573000Y-98373000D01*
X126573000Y-97473750D01*
X126827000Y-97473750D01*
X126827000Y-98373000D01*
X128426250Y-98373000D01*
X128585000Y-98214250D01*
X128585000Y-97823690D01*
X128533766Y-97700000D01*
X131441926Y-97700000D01*
X131565013Y-98318799D01*
X131915534Y-98843392D01*
X132440127Y-99193913D01*
X133058926Y-99317000D01*
X135141074Y-99317000D01*
X135759873Y-99193913D01*
X136284466Y-98843392D01*
X136634987Y-98318799D01*
X136758074Y-97700000D01*
X136634987Y-97081201D01*
X136284466Y-96556608D01*
X135759873Y-96206087D01*
X135141074Y-96083000D01*
X133058926Y-96083000D01*
X132440127Y-96206087D01*
X131915534Y-96556608D01*
X131565013Y-97081201D01*
X131441926Y-97700000D01*
X128533766Y-97700000D01*
X128488327Y-97590301D01*
X128309698Y-97411673D01*
X128076309Y-97315000D01*
X126985750Y-97315000D01*
X126827000Y-97473750D01*
X126573000Y-97473750D01*
X126414250Y-97315000D01*
X125323691Y-97315000D01*
X125179283Y-97374816D01*
X125179283Y-95550000D01*
X125135563Y-95317648D01*
X124998243Y-95104247D01*
X124848601Y-95002000D01*
X139898000Y-95002000D01*
X139898000Y-106798000D01*
X138600000Y-106798000D01*
X138331356Y-106851437D01*
X138103611Y-107003611D01*
X137951437Y-107231356D01*
X137898000Y-107500000D01*
X137898000Y-109100000D01*
X137951437Y-109368644D01*
X138103611Y-109596389D01*
X138331356Y-109748563D01*
X138600000Y-109802000D01*
X139898000Y-109802000D01*
X139898000Y-121598000D01*
X127327000Y-121598000D01*
X127327000Y-114600000D01*
X127318315Y-114553841D01*
X127291035Y-114511447D01*
X127249410Y-114483006D01*
X127200000Y-114473000D01*
X110800000Y-114473000D01*
X110753841Y-114481685D01*
X110711447Y-114508965D01*
X110683006Y-114550590D01*
X110673000Y-114600000D01*
X110673000Y-121598000D01*
X97802000Y-121598000D01*
X97802000Y-120300000D01*
X97748563Y-120031356D01*
X97596389Y-119803611D01*
X97368644Y-119651437D01*
X97100000Y-119598000D01*
X95600000Y-119598000D01*
X95331356Y-119651437D01*
X95103611Y-119803611D01*
X94951437Y-120031356D01*
X94898000Y-120300000D01*
X94898000Y-121598000D01*
X85302000Y-121598000D01*
X85302000Y-103078865D01*
X88629782Y-103078865D01*
X88660095Y-103204528D01*
X88971149Y-103759246D01*
X89470807Y-104152703D01*
X90083000Y-104325000D01*
X91073000Y-104325000D01*
X91073000Y-102827000D01*
X91327000Y-102827000D01*
X91327000Y-104325000D01*
X92317000Y-104325000D01*
X92929193Y-104152703D01*
X93428851Y-103759246D01*
X93739905Y-103204528D01*
X93770218Y-103078865D01*
X93650740Y-102827000D01*
X91327000Y-102827000D01*
X91073000Y-102827000D01*
X88749260Y-102827000D01*
X88629782Y-103078865D01*
X85302000Y-103078865D01*
X85302000Y-102321135D01*
X88629782Y-102321135D01*
X88749260Y-102573000D01*
X91073000Y-102573000D01*
X91073000Y-101075000D01*
X91327000Y-101075000D01*
X91327000Y-102573000D01*
X93650740Y-102573000D01*
X93770218Y-102321135D01*
X93739905Y-102195472D01*
X93428851Y-101640754D01*
X92929193Y-101247297D01*
X92317000Y-101075000D01*
X91327000Y-101075000D01*
X91073000Y-101075000D01*
X90083000Y-101075000D01*
X89470807Y-101247297D01*
X88971149Y-101640754D01*
X88660095Y-102195472D01*
X88629782Y-102321135D01*
X85302000Y-102321135D01*
X85302000Y-96710000D01*
X88580717Y-96710000D01*
X88580717Y-98690000D01*
X88624437Y-98922352D01*
X88761757Y-99135753D01*
X88971283Y-99278917D01*
X89220000Y-99329283D01*
X93180000Y-99329283D01*
X93412352Y-99285563D01*
X93625753Y-99148243D01*
X93768917Y-98938717D01*
X93819283Y-98690000D01*
X93819283Y-96710000D01*
X93775563Y-96477648D01*
X93638243Y-96264247D01*
X93428717Y-96121083D01*
X93180000Y-96070717D01*
X89220000Y-96070717D01*
X88987648Y-96114437D01*
X88774247Y-96251757D01*
X88631083Y-96461283D01*
X88580717Y-96710000D01*
X85302000Y-96710000D01*
X85302000Y-95002000D01*
X105898000Y-95002000D01*
X105898000Y-96300000D01*
M02*
