G04 #@! TF.FileFunction,Copper,L1,Top,Signal*
%FSLAX46Y46*%
G04 Gerber Fmt 4.6, Leading zero omitted, Abs format (unit mm)*
G04 Created by KiCad (PCBNEW 4.0.7) date 03/28/18 09:41:18*
%MOMM*%
%LPD*%
G01*
G04 APERTURE LIST*
%ADD10C,0.100000*%
%ADD11R,2.600000X2.235000*%
%ADD12R,2.235000X2.600000*%
%ADD13R,1.700000X1.700000*%
%ADD14O,1.700000X1.700000*%
%ADD15R,3.960000X1.980000*%
%ADD16O,3.960000X1.980000*%
%ADD17R,2.000000X3.800000*%
%ADD18R,2.000000X1.500000*%
%ADD19R,1.550000X1.300000*%
%ADD20R,0.600000X1.550000*%
%ADD21R,1.100000X1.100000*%
%ADD22R,2.790000X2.920000*%
%ADD23R,1.220000X0.870000*%
%ADD24R,0.845000X1.000000*%
%ADD25R,1.000000X0.845000*%
%ADD26C,0.600000*%
%ADD27C,2.000000*%
%ADD28C,1.200000*%
%ADD29C,0.250000*%
%ADD30C,0.500000*%
%ADD31C,0.300000*%
%ADD32C,0.200000*%
%ADD33C,1.000000*%
%ADD34C,0.700000*%
%ADD35C,0.254000*%
G04 APERTURE END LIST*
D10*
D11*
X104300000Y-105382500D03*
X104300000Y-111817500D03*
D12*
X102782500Y-119000000D03*
X109217500Y-119000000D03*
D13*
X130800000Y-115320000D03*
D14*
X130800000Y-112780000D03*
X130800000Y-110240000D03*
X130800000Y-107700000D03*
D15*
X91200000Y-97700000D03*
D16*
X91200000Y-102700000D03*
D15*
X134100000Y-102700000D03*
D16*
X134100000Y-97700000D03*
D17*
X125650000Y-102400000D03*
D18*
X119350000Y-102400000D03*
X119350000Y-104700000D03*
X119350000Y-100100000D03*
D19*
X115020000Y-112850000D03*
X115020000Y-108350000D03*
X122980000Y-108350000D03*
X122980000Y-112850000D03*
D20*
X96490000Y-116594999D03*
X97760000Y-116594999D03*
X99030000Y-116594999D03*
X100300000Y-116594999D03*
X100300000Y-111194999D03*
X99030000Y-111194999D03*
X97760000Y-111194999D03*
X96490000Y-111194999D03*
D21*
X96300000Y-107900000D03*
X99100000Y-107900000D03*
D22*
X90500000Y-119150000D03*
X90500000Y-108850000D03*
D23*
X130400000Y-118700000D03*
X132000000Y-118700000D03*
D24*
X134041072Y-118699999D03*
X135966072Y-118699999D03*
D25*
X127600000Y-110262500D03*
X127600000Y-108337500D03*
D24*
X112462500Y-112800000D03*
X110537500Y-112800000D03*
X114462500Y-100100000D03*
X112537500Y-100100000D03*
D25*
X116300000Y-100037500D03*
X116300000Y-101962500D03*
D21*
X104300000Y-101500000D03*
X101500000Y-101500000D03*
D26*
X97100000Y-113300000D03*
X97100000Y-114700000D03*
X98600000Y-113300000D03*
X100100000Y-113300000D03*
X98600000Y-114700000D03*
X100100000Y-114700000D03*
X85600000Y-99900000D03*
X98300000Y-102100000D03*
X99700000Y-102100000D03*
X99700000Y-100700000D03*
X98300000Y-100700000D03*
X99000000Y-101400000D03*
X85600000Y-97500000D03*
X92300000Y-121400000D03*
X99900000Y-121300000D03*
X102000000Y-121300000D03*
X104100000Y-121300000D03*
X106200000Y-121300000D03*
X108300000Y-121300000D03*
X94400000Y-121300000D03*
X98200000Y-121300000D03*
X85600000Y-121400000D03*
X139500000Y-97400000D03*
X139500000Y-102200000D03*
X139500000Y-95300000D03*
X139500000Y-99500000D03*
X139500000Y-106400000D03*
X139500000Y-104300000D03*
X130400000Y-95200000D03*
X128300000Y-95200000D03*
X134600000Y-95200000D03*
X132500000Y-95200000D03*
X136700000Y-95200000D03*
X126200000Y-95200000D03*
X139500000Y-119200000D03*
X139500000Y-117100000D03*
X139500000Y-112900000D03*
X139500000Y-115000000D03*
X139500000Y-110600000D03*
X85600000Y-104400000D03*
X85600000Y-106500000D03*
X85600000Y-108600000D03*
X85600000Y-110700000D03*
X85600000Y-119300000D03*
X85600000Y-117200000D03*
X85600000Y-115100000D03*
X85600000Y-113000000D03*
X88100000Y-121400000D03*
X90200000Y-121400000D03*
X129000000Y-121300000D03*
X131100000Y-121300000D03*
X139500000Y-121300000D03*
X133200000Y-121300000D03*
X135300000Y-121300000D03*
X137400000Y-121300000D03*
X110400000Y-115000000D03*
X127600000Y-121300000D03*
X127600000Y-119200000D03*
X127600000Y-117100000D03*
X127600000Y-115000000D03*
X126300000Y-114300000D03*
X124200000Y-114300000D03*
X122100000Y-114300000D03*
X120000000Y-114300000D03*
X117900000Y-114300000D03*
X115800000Y-114300000D03*
X113700000Y-114300000D03*
X111600000Y-114300000D03*
X109100000Y-95300000D03*
X112300000Y-95300000D03*
X89600000Y-95400000D03*
X87500000Y-95400000D03*
X100100000Y-95400000D03*
X102200000Y-95400000D03*
X93800000Y-95400000D03*
X91700000Y-95400000D03*
X98000000Y-95400000D03*
X95900000Y-95400000D03*
X105700000Y-95300000D03*
X85600000Y-102300000D03*
X85600000Y-95400000D03*
X104300000Y-95400000D03*
X100400000Y-107900000D03*
X104300000Y-109700000D03*
X104300000Y-113900000D03*
X102100000Y-111800000D03*
X109200000Y-116100000D03*
X106000000Y-102000000D03*
X106000000Y-100600000D03*
X107400000Y-102000000D03*
X107400000Y-100600000D03*
X106700000Y-101300000D03*
X124200000Y-105500000D03*
X105900000Y-119000000D03*
X105900000Y-118000000D03*
X105100000Y-118000000D03*
X105100000Y-119000000D03*
X124500000Y-111300000D03*
X128900000Y-107000000D03*
X113100000Y-102500000D03*
D27*
X91200000Y-97700000D02*
X101600000Y-97700000D01*
D28*
X101500000Y-101500000D02*
X101500000Y-97800000D01*
D27*
X101600000Y-97700000D02*
X134100000Y-97700000D01*
D28*
X101500000Y-97800000D02*
X101600000Y-97700000D01*
D29*
X127600000Y-115000000D02*
X127600000Y-114500000D01*
X127600000Y-114500000D02*
X127400000Y-114300000D01*
X127400000Y-114300000D02*
X124200000Y-114300000D01*
D30*
X98600000Y-113300000D02*
X100100000Y-113300000D01*
D31*
X100100000Y-113300000D02*
X100300000Y-113100000D01*
X100300000Y-112800000D02*
X100300000Y-113100000D01*
X100300000Y-112800000D02*
X100300000Y-111194999D01*
D30*
X97100000Y-113300000D02*
X98600000Y-113300000D01*
X97100000Y-114700000D02*
X97100000Y-113300000D01*
X98600000Y-114700000D02*
X97100000Y-114700000D01*
X100100000Y-114700000D02*
X98600000Y-114700000D01*
X100100000Y-113300000D02*
X100100000Y-114700000D01*
D29*
X85600000Y-99900000D02*
X85600000Y-99600000D01*
X85600000Y-102300000D02*
X85600000Y-99900000D01*
X98300000Y-102100000D02*
X97700000Y-102700000D01*
X97700000Y-102700000D02*
X91200000Y-102700000D01*
X85600000Y-97500000D02*
X85600000Y-95400000D01*
X92300000Y-121400000D02*
X94300000Y-121400000D01*
X94300000Y-121400000D02*
X94400000Y-121300000D01*
X108300000Y-121300000D02*
X106200000Y-121300000D01*
X109500000Y-121300000D02*
X108300000Y-121300000D01*
X99900000Y-121300000D02*
X98200000Y-121300000D01*
X102000000Y-121300000D02*
X99900000Y-121300000D01*
X104100000Y-121300000D02*
X102000000Y-121300000D01*
X106200000Y-121300000D02*
X104100000Y-121300000D01*
X94400000Y-121300000D02*
X94300000Y-121400000D01*
X94300000Y-121400000D02*
X90200000Y-121400000D01*
X90200000Y-121400000D02*
X88100000Y-121400000D01*
X88100000Y-121400000D02*
X85600000Y-121400000D01*
X85600000Y-121400000D02*
X85600000Y-119300000D01*
X85600000Y-119300000D02*
X85600000Y-117200000D01*
X85600000Y-117200000D02*
X85600000Y-115100000D01*
X85600000Y-115100000D02*
X85600000Y-113000000D01*
X85600000Y-113000000D02*
X85600000Y-110700000D01*
X85600000Y-110700000D02*
X85600000Y-108600000D01*
X85600000Y-108600000D02*
X85600000Y-106500000D01*
X85600000Y-106500000D02*
X85600000Y-104400000D01*
X85600000Y-104400000D02*
X85600000Y-102300000D01*
X109217500Y-121017500D02*
X109217500Y-119000000D01*
X109500000Y-121300000D02*
X109217500Y-121017500D01*
X130400000Y-95200000D02*
X132500000Y-95200000D01*
X126200000Y-95200000D02*
X128300000Y-95200000D01*
X128300000Y-95200000D02*
X130400000Y-95200000D01*
X138300000Y-110600000D02*
X139500000Y-110600000D01*
X137400000Y-109700000D02*
X138300000Y-110600000D01*
X137400000Y-107200000D02*
X137400000Y-109700000D01*
X138200000Y-106400000D02*
X137400000Y-107200000D01*
X138200000Y-106300000D02*
X138200000Y-106400000D01*
X138400000Y-106300000D02*
X138200000Y-106300000D01*
X138700000Y-106300000D02*
X138400000Y-106300000D01*
X139400000Y-106300000D02*
X138700000Y-106300000D01*
X139400000Y-104200000D02*
X139400000Y-106300000D01*
X139400000Y-102100000D02*
X139400000Y-104200000D01*
X139400000Y-99400000D02*
X139400000Y-102100000D01*
X139400000Y-97300000D02*
X139400000Y-99400000D01*
X139400000Y-95200000D02*
X139400000Y-97300000D01*
X136700000Y-95200000D02*
X139400000Y-95200000D01*
X134600000Y-95200000D02*
X136700000Y-95200000D01*
X132500000Y-95200000D02*
X134600000Y-95200000D01*
X139500000Y-110600000D02*
X139500000Y-112900000D01*
X139500000Y-112900000D02*
X139500000Y-115000000D01*
X139500000Y-115000000D02*
X139500000Y-117100000D01*
X139500000Y-117100000D02*
X139500000Y-119200000D01*
X139500000Y-119200000D02*
X139500000Y-121300000D01*
X139500000Y-121300000D02*
X137400000Y-121300000D01*
X137400000Y-121300000D02*
X135300000Y-121300000D01*
X135300000Y-121300000D02*
X133200000Y-121300000D01*
X133200000Y-121300000D02*
X131100000Y-121300000D01*
X131100000Y-121300000D02*
X129000000Y-121300000D01*
X129000000Y-121300000D02*
X127600000Y-121300000D01*
X127600000Y-121300000D02*
X127600000Y-119200000D01*
X127600000Y-119200000D02*
X127600000Y-117100000D01*
X127600000Y-117100000D02*
X127600000Y-115000000D01*
X124200000Y-114300000D02*
X122100000Y-114300000D01*
X122100000Y-114300000D02*
X120000000Y-114300000D01*
X120000000Y-114300000D02*
X117900000Y-114300000D01*
X117900000Y-114300000D02*
X115800000Y-114300000D01*
X115800000Y-114300000D02*
X113700000Y-114300000D01*
X113700000Y-114300000D02*
X111600000Y-114300000D01*
X111600000Y-114300000D02*
X111500000Y-114400000D01*
X111500000Y-114400000D02*
X110600000Y-114400000D01*
X110600000Y-114400000D02*
X110400000Y-114600000D01*
X110400000Y-114600000D02*
X110400000Y-114900000D01*
X110400000Y-114900000D02*
X109200000Y-116100000D01*
X109200000Y-116100000D02*
X109200000Y-118982500D01*
X109200000Y-118982500D02*
X109217500Y-119000000D01*
X109100000Y-95300000D02*
X112300000Y-95300000D01*
X87500000Y-95400000D02*
X89600000Y-95400000D01*
X89600000Y-95400000D02*
X91700000Y-95400000D01*
X91700000Y-95400000D02*
X93800000Y-95400000D01*
X93800000Y-95400000D02*
X95900000Y-95400000D01*
X95900000Y-95400000D02*
X98000000Y-95400000D01*
X98000000Y-95400000D02*
X100100000Y-95400000D01*
X100100000Y-95400000D02*
X102200000Y-95400000D01*
X102200000Y-95400000D02*
X104300000Y-95400000D01*
X104300000Y-95400000D02*
X105600000Y-95400000D01*
X105600000Y-95400000D02*
X105700000Y-95300000D01*
X85600000Y-99600000D02*
X85600000Y-95400000D01*
X85600000Y-95400000D02*
X89600000Y-95400000D01*
X85600000Y-99600000D02*
X85600000Y-100024264D01*
X91200000Y-102700000D02*
X87300000Y-102700000D01*
X87300000Y-102700000D02*
X86000000Y-102700000D01*
X85600000Y-102300000D02*
X86000000Y-102700000D01*
D32*
X99100000Y-107900000D02*
X100400000Y-107900000D01*
X104300000Y-111817500D02*
X104300000Y-109700000D01*
X104300000Y-111817500D02*
X104300000Y-113900000D01*
X104300000Y-111817500D02*
X102117500Y-111817500D01*
X102117500Y-111817500D02*
X102100000Y-111800000D01*
X109217500Y-119000000D02*
X109217500Y-121282500D01*
X109217500Y-121282500D02*
X109200000Y-121300000D01*
X109217500Y-119000000D02*
X109217500Y-116117500D01*
X109217500Y-116117500D02*
X109200000Y-116100000D01*
D30*
X127600000Y-110262500D02*
X127600000Y-111900000D01*
X127600000Y-111900000D02*
X130800000Y-115100000D01*
X130800000Y-115100000D02*
X130800000Y-115320000D01*
D28*
X100500000Y-119150000D02*
X102632500Y-119150000D01*
X102632500Y-119150000D02*
X102782500Y-119000000D01*
X90500000Y-119150000D02*
X102632500Y-119150000D01*
D33*
X130800000Y-115320000D02*
X133500000Y-115320000D01*
X133500000Y-115320000D02*
X133500000Y-106800000D01*
X133500000Y-106800000D02*
X132200000Y-105500000D01*
X132200000Y-105500000D02*
X124300000Y-105500000D01*
D30*
X130800000Y-115320000D02*
X130820000Y-115300000D01*
X130820000Y-115300000D02*
X134800000Y-115300000D01*
X134800000Y-115300000D02*
X135966072Y-116466072D01*
X135966072Y-116466072D02*
X135966072Y-118699999D01*
D33*
X102782500Y-119000000D02*
X105100000Y-119000000D01*
D30*
X100300000Y-116594999D02*
X100300000Y-118950000D01*
X100300000Y-118950000D02*
X100500000Y-119150000D01*
X125700000Y-111300000D02*
X124500000Y-111300000D01*
X129000000Y-114600000D02*
X125700000Y-111300000D01*
X129000000Y-118410000D02*
X129000000Y-114600000D01*
X130400000Y-118700000D02*
X129290000Y-118700000D01*
X129290000Y-118700000D02*
X129000000Y-118410000D01*
X132000000Y-118700000D02*
X134041071Y-118700000D01*
X134041071Y-118700000D02*
X134041072Y-118699999D01*
X114462500Y-100100000D02*
X116237500Y-100100000D01*
X116237500Y-100100000D02*
X116300000Y-100037500D01*
X116300000Y-100037500D02*
X119287500Y-100037500D01*
X119287500Y-100037500D02*
X119350000Y-100100000D01*
X128500000Y-107515000D02*
X128900000Y-107115000D01*
X128900000Y-107115000D02*
X128900000Y-107000000D01*
X127600000Y-108337500D02*
X127677500Y-108337500D01*
X127677500Y-108337500D02*
X128500000Y-107515000D01*
X125050000Y-108350000D02*
X125062500Y-108337500D01*
X125062500Y-108337500D02*
X127600000Y-108337500D01*
X122980000Y-108350000D02*
X125050000Y-108350000D01*
X123030000Y-108300000D02*
X122980000Y-108350000D01*
X115020000Y-108350000D02*
X122980000Y-108350000D01*
X112462500Y-112800000D02*
X114970000Y-112800000D01*
X114970000Y-112800000D02*
X115020000Y-112850000D01*
X115020000Y-112850000D02*
X116295000Y-112850000D01*
X116295000Y-112850000D02*
X122980000Y-112850000D01*
X113100000Y-101662500D02*
X113100000Y-102500000D01*
X112537500Y-100100000D02*
X112537500Y-101100000D01*
X112537500Y-101100000D02*
X113100000Y-101662500D01*
D33*
X96300000Y-107900000D02*
X91450000Y-107900000D01*
X91450000Y-107900000D02*
X90500000Y-108850000D01*
D34*
X96490000Y-111194999D02*
X96490000Y-108090000D01*
X96490000Y-108090000D02*
X96300000Y-107900000D01*
D27*
X134100000Y-102700000D02*
X125950000Y-102700000D01*
X125950000Y-102700000D02*
X125650000Y-102400000D01*
X119350000Y-102400000D02*
X125650000Y-102400000D01*
D34*
X97760000Y-111194999D02*
X97760000Y-105440000D01*
X97760000Y-105440000D02*
X97817500Y-105382500D01*
D27*
X104300000Y-105382500D02*
X97817500Y-105382500D01*
D28*
X104300000Y-101500000D02*
X104300000Y-105382500D01*
D35*
G36*
X105898000Y-96073000D02*
X93191274Y-96073000D01*
X93180000Y-96070717D01*
X89220000Y-96070717D01*
X88987648Y-96114437D01*
X88774247Y-96251757D01*
X88631083Y-96461283D01*
X88580717Y-96710000D01*
X88580717Y-98690000D01*
X88624437Y-98922352D01*
X88761757Y-99135753D01*
X88971283Y-99278917D01*
X89220000Y-99329283D01*
X93180000Y-99329283D01*
X93192133Y-99327000D01*
X100273000Y-99327000D01*
X100273000Y-101500000D01*
X100310717Y-101689616D01*
X100310717Y-102050000D01*
X100354437Y-102282352D01*
X100491757Y-102495753D01*
X100701283Y-102638917D01*
X100950000Y-102689283D01*
X101310384Y-102689283D01*
X101500000Y-102727000D01*
X101689616Y-102689283D01*
X102050000Y-102689283D01*
X102282352Y-102645563D01*
X102495753Y-102508243D01*
X102638917Y-102298717D01*
X102689283Y-102050000D01*
X102689283Y-101689616D01*
X102727000Y-101500000D01*
X102727000Y-99327000D01*
X111542675Y-99327000D01*
X111526083Y-99351283D01*
X111475717Y-99600000D01*
X111475717Y-100600000D01*
X111519437Y-100832352D01*
X111656757Y-101045753D01*
X111660500Y-101048311D01*
X111660500Y-101100000D01*
X111727258Y-101435613D01*
X111917367Y-101720133D01*
X112223000Y-102025766D01*
X112223000Y-102194774D01*
X112173161Y-102314799D01*
X112172839Y-102683583D01*
X112313669Y-103024417D01*
X112574211Y-103285414D01*
X112914799Y-103426839D01*
X113283583Y-103427161D01*
X113624417Y-103286331D01*
X113885414Y-103025789D01*
X114026839Y-102685201D01*
X114027161Y-102316417D01*
X113998995Y-102248250D01*
X115165000Y-102248250D01*
X115165000Y-102511309D01*
X115261673Y-102744698D01*
X115440301Y-102923327D01*
X115673690Y-103020000D01*
X116014250Y-103020000D01*
X116173000Y-102861250D01*
X116173000Y-102089500D01*
X116427000Y-102089500D01*
X116427000Y-102861250D01*
X116585750Y-103020000D01*
X116926310Y-103020000D01*
X117159699Y-102923327D01*
X117338327Y-102744698D01*
X117435000Y-102511309D01*
X117435000Y-102248250D01*
X117276250Y-102089500D01*
X116427000Y-102089500D01*
X116173000Y-102089500D01*
X115323750Y-102089500D01*
X115165000Y-102248250D01*
X113998995Y-102248250D01*
X113977000Y-102195018D01*
X113977000Y-101662500D01*
X113910242Y-101326887D01*
X113822243Y-101195187D01*
X114040000Y-101239283D01*
X114885000Y-101239283D01*
X115117352Y-101195563D01*
X115330753Y-101058243D01*
X115386264Y-100977000D01*
X115446030Y-100977000D01*
X115466349Y-100990884D01*
X115440301Y-101001673D01*
X115261673Y-101180302D01*
X115165000Y-101413691D01*
X115165000Y-101676750D01*
X115323750Y-101835500D01*
X116173000Y-101835500D01*
X116173000Y-101815500D01*
X116427000Y-101815500D01*
X116427000Y-101835500D01*
X117276250Y-101835500D01*
X117435000Y-101676750D01*
X117435000Y-101413691D01*
X117338327Y-101180302D01*
X117159699Y-101001673D01*
X117133174Y-100990686D01*
X117245753Y-100918243D01*
X117248311Y-100914500D01*
X117722853Y-100914500D01*
X117754437Y-101082352D01*
X117863351Y-101251609D01*
X117761083Y-101401283D01*
X117710717Y-101650000D01*
X117710717Y-103150000D01*
X117754437Y-103382352D01*
X117858267Y-103543708D01*
X117811673Y-103590301D01*
X117715000Y-103823690D01*
X117715000Y-104414250D01*
X117873750Y-104573000D01*
X119223000Y-104573000D01*
X119223000Y-104553000D01*
X119477000Y-104553000D01*
X119477000Y-104573000D01*
X120826250Y-104573000D01*
X120985000Y-104414250D01*
X120985000Y-104027000D01*
X124010717Y-104027000D01*
X124010717Y-104300000D01*
X124034394Y-104425832D01*
X123868716Y-104458788D01*
X123503091Y-104703091D01*
X123258788Y-105068716D01*
X123173000Y-105500000D01*
X123258788Y-105931284D01*
X123503091Y-106296909D01*
X123868716Y-106541212D01*
X124300000Y-106627000D01*
X128051142Y-106627000D01*
X127982553Y-106792182D01*
X127879867Y-106894867D01*
X127879865Y-106894870D01*
X127499018Y-107275717D01*
X127100000Y-107275717D01*
X126867648Y-107319437D01*
X126654247Y-107456757D01*
X126651689Y-107460500D01*
X125062505Y-107460500D01*
X125062500Y-107460499D01*
X124999655Y-107473000D01*
X124351570Y-107473000D01*
X124350563Y-107467648D01*
X124213243Y-107254247D01*
X124003717Y-107111083D01*
X123755000Y-107060717D01*
X122205000Y-107060717D01*
X121972648Y-107104437D01*
X121759247Y-107241757D01*
X121616083Y-107451283D01*
X121611685Y-107473000D01*
X116391570Y-107473000D01*
X116390563Y-107467648D01*
X116253243Y-107254247D01*
X116043717Y-107111083D01*
X115795000Y-107060717D01*
X114245000Y-107060717D01*
X114012648Y-107104437D01*
X113799247Y-107241757D01*
X113656083Y-107451283D01*
X113605717Y-107700000D01*
X113605717Y-109000000D01*
X113649437Y-109232352D01*
X113786757Y-109445753D01*
X113996283Y-109588917D01*
X114245000Y-109639283D01*
X115795000Y-109639283D01*
X116027352Y-109595563D01*
X116240753Y-109458243D01*
X116383917Y-109248717D01*
X116388315Y-109227000D01*
X121608430Y-109227000D01*
X121609437Y-109232352D01*
X121746757Y-109445753D01*
X121956283Y-109588917D01*
X122205000Y-109639283D01*
X123755000Y-109639283D01*
X123987352Y-109595563D01*
X124200753Y-109458243D01*
X124343917Y-109248717D01*
X124348315Y-109227000D01*
X125050000Y-109227000D01*
X125112841Y-109214500D01*
X126654559Y-109214500D01*
X126780472Y-109300533D01*
X126654247Y-109381757D01*
X126511083Y-109591283D01*
X126460717Y-109840000D01*
X126460717Y-110685000D01*
X126492111Y-110851845D01*
X126320133Y-110679867D01*
X126035613Y-110489758D01*
X125700000Y-110423000D01*
X124805226Y-110423000D01*
X124685201Y-110373161D01*
X124316417Y-110372839D01*
X123975583Y-110513669D01*
X123714586Y-110774211D01*
X123573161Y-111114799D01*
X123572839Y-111483583D01*
X123604710Y-111560717D01*
X122205000Y-111560717D01*
X121972648Y-111604437D01*
X121759247Y-111741757D01*
X121616083Y-111951283D01*
X121611685Y-111973000D01*
X116391570Y-111973000D01*
X116390563Y-111967648D01*
X116253243Y-111754247D01*
X116043717Y-111611083D01*
X115795000Y-111560717D01*
X114245000Y-111560717D01*
X114012648Y-111604437D01*
X113799247Y-111741757D01*
X113675408Y-111923000D01*
X113387484Y-111923000D01*
X113343243Y-111854247D01*
X113133717Y-111711083D01*
X112885000Y-111660717D01*
X112040000Y-111660717D01*
X111807648Y-111704437D01*
X111594247Y-111841757D01*
X111509116Y-111966349D01*
X111498327Y-111940301D01*
X111319698Y-111761673D01*
X111086309Y-111665000D01*
X110823250Y-111665000D01*
X110664500Y-111823750D01*
X110664500Y-112673000D01*
X110684500Y-112673000D01*
X110684500Y-112927000D01*
X110664500Y-112927000D01*
X110664500Y-113776250D01*
X110823250Y-113935000D01*
X111086309Y-113935000D01*
X111319698Y-113838327D01*
X111498327Y-113659699D01*
X111509314Y-113633174D01*
X111581757Y-113745753D01*
X111791283Y-113888917D01*
X112040000Y-113939283D01*
X112885000Y-113939283D01*
X113117352Y-113895563D01*
X113330753Y-113758243D01*
X113386264Y-113677000D01*
X113639022Y-113677000D01*
X113649437Y-113732352D01*
X113786757Y-113945753D01*
X113996283Y-114088917D01*
X114245000Y-114139283D01*
X115795000Y-114139283D01*
X116027352Y-114095563D01*
X116240753Y-113958243D01*
X116383917Y-113748717D01*
X116388315Y-113727000D01*
X121608430Y-113727000D01*
X121609437Y-113732352D01*
X121746757Y-113945753D01*
X121956283Y-114088917D01*
X122205000Y-114139283D01*
X123755000Y-114139283D01*
X123987352Y-114095563D01*
X124200753Y-113958243D01*
X124343917Y-113748717D01*
X124394283Y-113500000D01*
X124394283Y-112226908D01*
X124683583Y-112227161D01*
X124804982Y-112177000D01*
X125336734Y-112177000D01*
X128123000Y-114963265D01*
X128123000Y-118410000D01*
X128189758Y-118745613D01*
X128379867Y-119030133D01*
X128669867Y-119320133D01*
X128954387Y-119510242D01*
X129290000Y-119577001D01*
X129290005Y-119577000D01*
X129329342Y-119577000D01*
X129331757Y-119580753D01*
X129541283Y-119723917D01*
X129790000Y-119774283D01*
X131010000Y-119774283D01*
X131206974Y-119737220D01*
X131390000Y-119774283D01*
X132610000Y-119774283D01*
X132842352Y-119730563D01*
X133055753Y-119593243D01*
X133066851Y-119577000D01*
X133116088Y-119577000D01*
X133160329Y-119645752D01*
X133369855Y-119788916D01*
X133618572Y-119839282D01*
X134463572Y-119839282D01*
X134695924Y-119795562D01*
X134909325Y-119658242D01*
X135004105Y-119519527D01*
X135085329Y-119645752D01*
X135294855Y-119788916D01*
X135543572Y-119839282D01*
X136388572Y-119839282D01*
X136620924Y-119795562D01*
X136834325Y-119658242D01*
X136977489Y-119448716D01*
X137027855Y-119199999D01*
X137027855Y-118199999D01*
X136984135Y-117967647D01*
X136846815Y-117754246D01*
X136843072Y-117751688D01*
X136843072Y-116466077D01*
X136843073Y-116466072D01*
X136776314Y-116130459D01*
X136586205Y-115845939D01*
X135420133Y-114679867D01*
X135135613Y-114489758D01*
X134800000Y-114423000D01*
X134627000Y-114423000D01*
X134627000Y-106800000D01*
X134541212Y-106368716D01*
X134486164Y-106286331D01*
X134296910Y-106003091D01*
X132996909Y-104703091D01*
X132631284Y-104458788D01*
X132200000Y-104373000D01*
X127274500Y-104373000D01*
X127283815Y-104327000D01*
X132108726Y-104327000D01*
X132120000Y-104329283D01*
X136080000Y-104329283D01*
X136312352Y-104285563D01*
X136525753Y-104148243D01*
X136668917Y-103938717D01*
X136719283Y-103690000D01*
X136719283Y-101710000D01*
X136675563Y-101477648D01*
X136538243Y-101264247D01*
X136328717Y-101121083D01*
X136080000Y-101070717D01*
X132120000Y-101070717D01*
X132107867Y-101073000D01*
X127289283Y-101073000D01*
X127289283Y-100500000D01*
X127245563Y-100267648D01*
X127108243Y-100054247D01*
X126898717Y-99911083D01*
X126650000Y-99860717D01*
X124650000Y-99860717D01*
X124417648Y-99904437D01*
X124204247Y-100041757D01*
X124061083Y-100251283D01*
X124010717Y-100500000D01*
X124010717Y-100773000D01*
X120989283Y-100773000D01*
X120989283Y-99350000D01*
X120984955Y-99327000D01*
X134100000Y-99327000D01*
X134150273Y-99317000D01*
X135141074Y-99317000D01*
X135759873Y-99193913D01*
X136284466Y-98843392D01*
X136634987Y-98318799D01*
X136758074Y-97700000D01*
X136634987Y-97081201D01*
X136284466Y-96556608D01*
X135759873Y-96206087D01*
X135141074Y-96083000D01*
X134150273Y-96083000D01*
X134100000Y-96073000D01*
X108802000Y-96073000D01*
X108802000Y-95002000D01*
X139898000Y-95002000D01*
X139898000Y-106798000D01*
X138600000Y-106798000D01*
X138331356Y-106851437D01*
X138103611Y-107003611D01*
X137951437Y-107231356D01*
X137898000Y-107500000D01*
X137898000Y-109100000D01*
X137951437Y-109368644D01*
X138103611Y-109596389D01*
X138331356Y-109748563D01*
X138600000Y-109802000D01*
X139898000Y-109802000D01*
X139898000Y-121598000D01*
X127327000Y-121598000D01*
X127327000Y-114600000D01*
X127318315Y-114553841D01*
X127291035Y-114511447D01*
X127249410Y-114483006D01*
X127200000Y-114473000D01*
X110800000Y-114473000D01*
X110753841Y-114481685D01*
X110711447Y-114508965D01*
X110683006Y-114550590D01*
X110673000Y-114600000D01*
X110673000Y-117152685D01*
X110461309Y-117065000D01*
X109503250Y-117065000D01*
X109344500Y-117223750D01*
X109344500Y-118873000D01*
X109364500Y-118873000D01*
X109364500Y-119127000D01*
X109344500Y-119127000D01*
X109344500Y-120776250D01*
X109503250Y-120935000D01*
X110461309Y-120935000D01*
X110673000Y-120847315D01*
X110673000Y-121598000D01*
X97802000Y-121598000D01*
X97802000Y-120377000D01*
X101040206Y-120377000D01*
X101069437Y-120532352D01*
X101206757Y-120745753D01*
X101416283Y-120888917D01*
X101665000Y-120939283D01*
X103900000Y-120939283D01*
X104132352Y-120895563D01*
X104345753Y-120758243D01*
X104488917Y-120548717D01*
X104539283Y-120300000D01*
X104539283Y-120127000D01*
X106400000Y-120127000D01*
X106627888Y-120084120D01*
X106837189Y-119949438D01*
X106977601Y-119743938D01*
X107027000Y-119500000D01*
X107027000Y-119285750D01*
X107465000Y-119285750D01*
X107465000Y-120426310D01*
X107561673Y-120659699D01*
X107740302Y-120838327D01*
X107973691Y-120935000D01*
X108931750Y-120935000D01*
X109090500Y-120776250D01*
X109090500Y-119127000D01*
X107623750Y-119127000D01*
X107465000Y-119285750D01*
X107027000Y-119285750D01*
X107027000Y-117573690D01*
X107465000Y-117573690D01*
X107465000Y-118714250D01*
X107623750Y-118873000D01*
X109090500Y-118873000D01*
X109090500Y-117223750D01*
X108931750Y-117065000D01*
X107973691Y-117065000D01*
X107740302Y-117161673D01*
X107561673Y-117340301D01*
X107465000Y-117573690D01*
X107027000Y-117573690D01*
X107027000Y-117500000D01*
X106984120Y-117272112D01*
X106849438Y-117062811D01*
X106643938Y-116922399D01*
X106400000Y-116873000D01*
X104600000Y-116873000D01*
X104372112Y-116915880D01*
X104162811Y-117050562D01*
X104124772Y-117106234D01*
X103900000Y-117060717D01*
X101665000Y-117060717D01*
X101432648Y-117104437D01*
X101239283Y-117228864D01*
X101239283Y-115819999D01*
X101195563Y-115587647D01*
X101058243Y-115374246D01*
X100848717Y-115231082D01*
X100600000Y-115180716D01*
X100000000Y-115180716D01*
X99767648Y-115224436D01*
X99665340Y-115290269D01*
X99578717Y-115231082D01*
X99330000Y-115180716D01*
X98730000Y-115180716D01*
X98497648Y-115224436D01*
X98395340Y-115290269D01*
X98308717Y-115231082D01*
X98060000Y-115180716D01*
X97460000Y-115180716D01*
X97227648Y-115224436D01*
X97125340Y-115290269D01*
X97038717Y-115231082D01*
X96790000Y-115180716D01*
X96190000Y-115180716D01*
X95957648Y-115224436D01*
X95744247Y-115361756D01*
X95601083Y-115571282D01*
X95550717Y-115819999D01*
X95550717Y-117369999D01*
X95594437Y-117602351D01*
X95731757Y-117815752D01*
X95888719Y-117923000D01*
X92534283Y-117923000D01*
X92534283Y-117690000D01*
X92490563Y-117457648D01*
X92353243Y-117244247D01*
X92143717Y-117101083D01*
X91895000Y-117050717D01*
X89105000Y-117050717D01*
X88872648Y-117094437D01*
X88659247Y-117231757D01*
X88516083Y-117441283D01*
X88465717Y-117690000D01*
X88465717Y-120610000D01*
X88509437Y-120842352D01*
X88646757Y-121055753D01*
X88856283Y-121198917D01*
X89105000Y-121249283D01*
X91895000Y-121249283D01*
X92127352Y-121205563D01*
X92340753Y-121068243D01*
X92483917Y-120858717D01*
X92534283Y-120610000D01*
X92534283Y-120377000D01*
X94898000Y-120377000D01*
X94898000Y-121598000D01*
X85302000Y-121598000D01*
X85302000Y-107390000D01*
X88465717Y-107390000D01*
X88465717Y-110310000D01*
X88509437Y-110542352D01*
X88646757Y-110755753D01*
X88856283Y-110898917D01*
X89105000Y-110949283D01*
X91895000Y-110949283D01*
X92127352Y-110905563D01*
X92340753Y-110768243D01*
X92483917Y-110558717D01*
X92534283Y-110310000D01*
X92534283Y-109027000D01*
X95483842Y-109027000D01*
X95501283Y-109038917D01*
X95513000Y-109041290D01*
X95513000Y-111194999D01*
X95550717Y-111384615D01*
X95550717Y-111969999D01*
X95594437Y-112202351D01*
X95731757Y-112415752D01*
X95941283Y-112558916D01*
X96190000Y-112609282D01*
X96790000Y-112609282D01*
X97022352Y-112565562D01*
X97124660Y-112499729D01*
X97211283Y-112558916D01*
X97460000Y-112609282D01*
X98060000Y-112609282D01*
X98292352Y-112565562D01*
X98376992Y-112511098D01*
X98603690Y-112604999D01*
X98744250Y-112604999D01*
X98903000Y-112446249D01*
X98903000Y-111321999D01*
X99157000Y-111321999D01*
X99157000Y-112446249D01*
X99315750Y-112604999D01*
X99456310Y-112604999D01*
X99665000Y-112518557D01*
X99873690Y-112604999D01*
X100014250Y-112604999D01*
X100173000Y-112446249D01*
X100173000Y-111321999D01*
X100427000Y-111321999D01*
X100427000Y-112446249D01*
X100585750Y-112604999D01*
X100726310Y-112604999D01*
X100959699Y-112508326D01*
X101138327Y-112329697D01*
X101232124Y-112103250D01*
X102365000Y-112103250D01*
X102365000Y-113061309D01*
X102461673Y-113294698D01*
X102640301Y-113473327D01*
X102873690Y-113570000D01*
X104014250Y-113570000D01*
X104173000Y-113411250D01*
X104173000Y-111944500D01*
X104427000Y-111944500D01*
X104427000Y-113411250D01*
X104585750Y-113570000D01*
X105726310Y-113570000D01*
X105959699Y-113473327D01*
X106138327Y-113294698D01*
X106224876Y-113085750D01*
X109480000Y-113085750D01*
X109480000Y-113426310D01*
X109576673Y-113659699D01*
X109755302Y-113838327D01*
X109988691Y-113935000D01*
X110251750Y-113935000D01*
X110410500Y-113776250D01*
X110410500Y-112927000D01*
X109638750Y-112927000D01*
X109480000Y-113085750D01*
X106224876Y-113085750D01*
X106235000Y-113061309D01*
X106235000Y-112173690D01*
X109480000Y-112173690D01*
X109480000Y-112514250D01*
X109638750Y-112673000D01*
X110410500Y-112673000D01*
X110410500Y-111823750D01*
X110251750Y-111665000D01*
X109988691Y-111665000D01*
X109755302Y-111761673D01*
X109576673Y-111940301D01*
X109480000Y-112173690D01*
X106235000Y-112173690D01*
X106235000Y-112103250D01*
X106076250Y-111944500D01*
X104427000Y-111944500D01*
X104173000Y-111944500D01*
X102523750Y-111944500D01*
X102365000Y-112103250D01*
X101232124Y-112103250D01*
X101235000Y-112096308D01*
X101235000Y-111480749D01*
X101076250Y-111321999D01*
X100427000Y-111321999D01*
X100173000Y-111321999D01*
X99157000Y-111321999D01*
X98903000Y-111321999D01*
X98883000Y-111321999D01*
X98883000Y-111067999D01*
X98903000Y-111067999D01*
X98903000Y-109943749D01*
X99157000Y-109943749D01*
X99157000Y-111067999D01*
X100173000Y-111067999D01*
X100173000Y-109943749D01*
X100427000Y-109943749D01*
X100427000Y-111067999D01*
X101076250Y-111067999D01*
X101235000Y-110909249D01*
X101235000Y-110573691D01*
X102365000Y-110573691D01*
X102365000Y-111531750D01*
X102523750Y-111690500D01*
X104173000Y-111690500D01*
X104173000Y-110223750D01*
X104427000Y-110223750D01*
X104427000Y-111690500D01*
X106076250Y-111690500D01*
X106235000Y-111531750D01*
X106235000Y-110573691D01*
X106138327Y-110340302D01*
X105959699Y-110161673D01*
X105726310Y-110065000D01*
X104585750Y-110065000D01*
X104427000Y-110223750D01*
X104173000Y-110223750D01*
X104014250Y-110065000D01*
X102873690Y-110065000D01*
X102640301Y-110161673D01*
X102461673Y-110340302D01*
X102365000Y-110573691D01*
X101235000Y-110573691D01*
X101235000Y-110293690D01*
X101138327Y-110060301D01*
X100959699Y-109881672D01*
X100726310Y-109784999D01*
X100585750Y-109784999D01*
X100427000Y-109943749D01*
X100173000Y-109943749D01*
X100014250Y-109784999D01*
X99873690Y-109784999D01*
X99665000Y-109871441D01*
X99456310Y-109784999D01*
X99315750Y-109784999D01*
X99157000Y-109943749D01*
X98903000Y-109943749D01*
X98744250Y-109784999D01*
X98737000Y-109784999D01*
X98737000Y-109085000D01*
X98814250Y-109085000D01*
X98973000Y-108926250D01*
X98973000Y-108027000D01*
X99227000Y-108027000D01*
X99227000Y-108926250D01*
X99385750Y-109085000D01*
X99776309Y-109085000D01*
X100009698Y-108988327D01*
X100188327Y-108809699D01*
X100285000Y-108576310D01*
X100285000Y-108185750D01*
X100126250Y-108027000D01*
X99227000Y-108027000D01*
X98973000Y-108027000D01*
X98953000Y-108027000D01*
X98953000Y-107773000D01*
X98973000Y-107773000D01*
X98973000Y-107753000D01*
X99227000Y-107753000D01*
X99227000Y-107773000D01*
X100126250Y-107773000D01*
X100285000Y-107614250D01*
X100285000Y-107223690D01*
X100196279Y-107009500D01*
X102635053Y-107009500D01*
X102751283Y-107088917D01*
X103000000Y-107139283D01*
X105600000Y-107139283D01*
X105832352Y-107095563D01*
X106045753Y-106958243D01*
X106188917Y-106748717D01*
X106239283Y-106500000D01*
X106239283Y-104985750D01*
X117715000Y-104985750D01*
X117715000Y-105576310D01*
X117811673Y-105809699D01*
X117990302Y-105988327D01*
X118223691Y-106085000D01*
X119064250Y-106085000D01*
X119223000Y-105926250D01*
X119223000Y-104827000D01*
X119477000Y-104827000D01*
X119477000Y-105926250D01*
X119635750Y-106085000D01*
X120476309Y-106085000D01*
X120709698Y-105988327D01*
X120888327Y-105809699D01*
X120985000Y-105576310D01*
X120985000Y-104985750D01*
X120826250Y-104827000D01*
X119477000Y-104827000D01*
X119223000Y-104827000D01*
X117873750Y-104827000D01*
X117715000Y-104985750D01*
X106239283Y-104985750D01*
X106239283Y-104265000D01*
X106195563Y-104032648D01*
X106058243Y-103819247D01*
X105848717Y-103676083D01*
X105600000Y-103625717D01*
X105527000Y-103625717D01*
X105527000Y-101500000D01*
X105489283Y-101310384D01*
X105489283Y-100950000D01*
X105445563Y-100717648D01*
X105308243Y-100504247D01*
X105098717Y-100361083D01*
X104850000Y-100310717D01*
X104489616Y-100310717D01*
X104300000Y-100273000D01*
X104110384Y-100310717D01*
X103750000Y-100310717D01*
X103517648Y-100354437D01*
X103304247Y-100491757D01*
X103161083Y-100701283D01*
X103110717Y-100950000D01*
X103110717Y-101310384D01*
X103073000Y-101500000D01*
X103073000Y-103625717D01*
X103000000Y-103625717D01*
X102767648Y-103669437D01*
X102633903Y-103755500D01*
X97817500Y-103755500D01*
X97194874Y-103879348D01*
X96667037Y-104232037D01*
X96314348Y-104759874D01*
X96190500Y-105382500D01*
X96314348Y-106005126D01*
X96667037Y-106532963D01*
X96783000Y-106610447D01*
X96783000Y-106710717D01*
X95750000Y-106710717D01*
X95517648Y-106754437D01*
X95488800Y-106773000D01*
X92005038Y-106773000D01*
X91895000Y-106750717D01*
X89105000Y-106750717D01*
X88872648Y-106794437D01*
X88659247Y-106931757D01*
X88516083Y-107141283D01*
X88465717Y-107390000D01*
X85302000Y-107390000D01*
X85302000Y-103078865D01*
X88629782Y-103078865D01*
X88660095Y-103204528D01*
X88971149Y-103759246D01*
X89470807Y-104152703D01*
X90083000Y-104325000D01*
X91073000Y-104325000D01*
X91073000Y-102827000D01*
X91327000Y-102827000D01*
X91327000Y-104325000D01*
X92317000Y-104325000D01*
X92929193Y-104152703D01*
X93428851Y-103759246D01*
X93739905Y-103204528D01*
X93770218Y-103078865D01*
X93650740Y-102827000D01*
X91327000Y-102827000D01*
X91073000Y-102827000D01*
X88749260Y-102827000D01*
X88629782Y-103078865D01*
X85302000Y-103078865D01*
X85302000Y-102321135D01*
X88629782Y-102321135D01*
X88749260Y-102573000D01*
X91073000Y-102573000D01*
X91073000Y-101075000D01*
X91327000Y-101075000D01*
X91327000Y-102573000D01*
X93650740Y-102573000D01*
X93770218Y-102321135D01*
X93739905Y-102195472D01*
X93428851Y-101640754D01*
X92929193Y-101247297D01*
X92317000Y-101075000D01*
X91327000Y-101075000D01*
X91073000Y-101075000D01*
X90083000Y-101075000D01*
X89470807Y-101247297D01*
X88971149Y-101640754D01*
X88660095Y-102195472D01*
X88629782Y-102321135D01*
X85302000Y-102321135D01*
X85302000Y-95002000D01*
X105898000Y-95002000D01*
X105898000Y-96073000D01*
X105898000Y-96073000D01*
G37*
X105898000Y-96073000D02*
X93191274Y-96073000D01*
X93180000Y-96070717D01*
X89220000Y-96070717D01*
X88987648Y-96114437D01*
X88774247Y-96251757D01*
X88631083Y-96461283D01*
X88580717Y-96710000D01*
X88580717Y-98690000D01*
X88624437Y-98922352D01*
X88761757Y-99135753D01*
X88971283Y-99278917D01*
X89220000Y-99329283D01*
X93180000Y-99329283D01*
X93192133Y-99327000D01*
X100273000Y-99327000D01*
X100273000Y-101500000D01*
X100310717Y-101689616D01*
X100310717Y-102050000D01*
X100354437Y-102282352D01*
X100491757Y-102495753D01*
X100701283Y-102638917D01*
X100950000Y-102689283D01*
X101310384Y-102689283D01*
X101500000Y-102727000D01*
X101689616Y-102689283D01*
X102050000Y-102689283D01*
X102282352Y-102645563D01*
X102495753Y-102508243D01*
X102638917Y-102298717D01*
X102689283Y-102050000D01*
X102689283Y-101689616D01*
X102727000Y-101500000D01*
X102727000Y-99327000D01*
X111542675Y-99327000D01*
X111526083Y-99351283D01*
X111475717Y-99600000D01*
X111475717Y-100600000D01*
X111519437Y-100832352D01*
X111656757Y-101045753D01*
X111660500Y-101048311D01*
X111660500Y-101100000D01*
X111727258Y-101435613D01*
X111917367Y-101720133D01*
X112223000Y-102025766D01*
X112223000Y-102194774D01*
X112173161Y-102314799D01*
X112172839Y-102683583D01*
X112313669Y-103024417D01*
X112574211Y-103285414D01*
X112914799Y-103426839D01*
X113283583Y-103427161D01*
X113624417Y-103286331D01*
X113885414Y-103025789D01*
X114026839Y-102685201D01*
X114027161Y-102316417D01*
X113998995Y-102248250D01*
X115165000Y-102248250D01*
X115165000Y-102511309D01*
X115261673Y-102744698D01*
X115440301Y-102923327D01*
X115673690Y-103020000D01*
X116014250Y-103020000D01*
X116173000Y-102861250D01*
X116173000Y-102089500D01*
X116427000Y-102089500D01*
X116427000Y-102861250D01*
X116585750Y-103020000D01*
X116926310Y-103020000D01*
X117159699Y-102923327D01*
X117338327Y-102744698D01*
X117435000Y-102511309D01*
X117435000Y-102248250D01*
X117276250Y-102089500D01*
X116427000Y-102089500D01*
X116173000Y-102089500D01*
X115323750Y-102089500D01*
X115165000Y-102248250D01*
X113998995Y-102248250D01*
X113977000Y-102195018D01*
X113977000Y-101662500D01*
X113910242Y-101326887D01*
X113822243Y-101195187D01*
X114040000Y-101239283D01*
X114885000Y-101239283D01*
X115117352Y-101195563D01*
X115330753Y-101058243D01*
X115386264Y-100977000D01*
X115446030Y-100977000D01*
X115466349Y-100990884D01*
X115440301Y-101001673D01*
X115261673Y-101180302D01*
X115165000Y-101413691D01*
X115165000Y-101676750D01*
X115323750Y-101835500D01*
X116173000Y-101835500D01*
X116173000Y-101815500D01*
X116427000Y-101815500D01*
X116427000Y-101835500D01*
X117276250Y-101835500D01*
X117435000Y-101676750D01*
X117435000Y-101413691D01*
X117338327Y-101180302D01*
X117159699Y-101001673D01*
X117133174Y-100990686D01*
X117245753Y-100918243D01*
X117248311Y-100914500D01*
X117722853Y-100914500D01*
X117754437Y-101082352D01*
X117863351Y-101251609D01*
X117761083Y-101401283D01*
X117710717Y-101650000D01*
X117710717Y-103150000D01*
X117754437Y-103382352D01*
X117858267Y-103543708D01*
X117811673Y-103590301D01*
X117715000Y-103823690D01*
X117715000Y-104414250D01*
X117873750Y-104573000D01*
X119223000Y-104573000D01*
X119223000Y-104553000D01*
X119477000Y-104553000D01*
X119477000Y-104573000D01*
X120826250Y-104573000D01*
X120985000Y-104414250D01*
X120985000Y-104027000D01*
X124010717Y-104027000D01*
X124010717Y-104300000D01*
X124034394Y-104425832D01*
X123868716Y-104458788D01*
X123503091Y-104703091D01*
X123258788Y-105068716D01*
X123173000Y-105500000D01*
X123258788Y-105931284D01*
X123503091Y-106296909D01*
X123868716Y-106541212D01*
X124300000Y-106627000D01*
X128051142Y-106627000D01*
X127982553Y-106792182D01*
X127879867Y-106894867D01*
X127879865Y-106894870D01*
X127499018Y-107275717D01*
X127100000Y-107275717D01*
X126867648Y-107319437D01*
X126654247Y-107456757D01*
X126651689Y-107460500D01*
X125062505Y-107460500D01*
X125062500Y-107460499D01*
X124999655Y-107473000D01*
X124351570Y-107473000D01*
X124350563Y-107467648D01*
X124213243Y-107254247D01*
X124003717Y-107111083D01*
X123755000Y-107060717D01*
X122205000Y-107060717D01*
X121972648Y-107104437D01*
X121759247Y-107241757D01*
X121616083Y-107451283D01*
X121611685Y-107473000D01*
X116391570Y-107473000D01*
X116390563Y-107467648D01*
X116253243Y-107254247D01*
X116043717Y-107111083D01*
X115795000Y-107060717D01*
X114245000Y-107060717D01*
X114012648Y-107104437D01*
X113799247Y-107241757D01*
X113656083Y-107451283D01*
X113605717Y-107700000D01*
X113605717Y-109000000D01*
X113649437Y-109232352D01*
X113786757Y-109445753D01*
X113996283Y-109588917D01*
X114245000Y-109639283D01*
X115795000Y-109639283D01*
X116027352Y-109595563D01*
X116240753Y-109458243D01*
X116383917Y-109248717D01*
X116388315Y-109227000D01*
X121608430Y-109227000D01*
X121609437Y-109232352D01*
X121746757Y-109445753D01*
X121956283Y-109588917D01*
X122205000Y-109639283D01*
X123755000Y-109639283D01*
X123987352Y-109595563D01*
X124200753Y-109458243D01*
X124343917Y-109248717D01*
X124348315Y-109227000D01*
X125050000Y-109227000D01*
X125112841Y-109214500D01*
X126654559Y-109214500D01*
X126780472Y-109300533D01*
X126654247Y-109381757D01*
X126511083Y-109591283D01*
X126460717Y-109840000D01*
X126460717Y-110685000D01*
X126492111Y-110851845D01*
X126320133Y-110679867D01*
X126035613Y-110489758D01*
X125700000Y-110423000D01*
X124805226Y-110423000D01*
X124685201Y-110373161D01*
X124316417Y-110372839D01*
X123975583Y-110513669D01*
X123714586Y-110774211D01*
X123573161Y-111114799D01*
X123572839Y-111483583D01*
X123604710Y-111560717D01*
X122205000Y-111560717D01*
X121972648Y-111604437D01*
X121759247Y-111741757D01*
X121616083Y-111951283D01*
X121611685Y-111973000D01*
X116391570Y-111973000D01*
X116390563Y-111967648D01*
X116253243Y-111754247D01*
X116043717Y-111611083D01*
X115795000Y-111560717D01*
X114245000Y-111560717D01*
X114012648Y-111604437D01*
X113799247Y-111741757D01*
X113675408Y-111923000D01*
X113387484Y-111923000D01*
X113343243Y-111854247D01*
X113133717Y-111711083D01*
X112885000Y-111660717D01*
X112040000Y-111660717D01*
X111807648Y-111704437D01*
X111594247Y-111841757D01*
X111509116Y-111966349D01*
X111498327Y-111940301D01*
X111319698Y-111761673D01*
X111086309Y-111665000D01*
X110823250Y-111665000D01*
X110664500Y-111823750D01*
X110664500Y-112673000D01*
X110684500Y-112673000D01*
X110684500Y-112927000D01*
X110664500Y-112927000D01*
X110664500Y-113776250D01*
X110823250Y-113935000D01*
X111086309Y-113935000D01*
X111319698Y-113838327D01*
X111498327Y-113659699D01*
X111509314Y-113633174D01*
X111581757Y-113745753D01*
X111791283Y-113888917D01*
X112040000Y-113939283D01*
X112885000Y-113939283D01*
X113117352Y-113895563D01*
X113330753Y-113758243D01*
X113386264Y-113677000D01*
X113639022Y-113677000D01*
X113649437Y-113732352D01*
X113786757Y-113945753D01*
X113996283Y-114088917D01*
X114245000Y-114139283D01*
X115795000Y-114139283D01*
X116027352Y-114095563D01*
X116240753Y-113958243D01*
X116383917Y-113748717D01*
X116388315Y-113727000D01*
X121608430Y-113727000D01*
X121609437Y-113732352D01*
X121746757Y-113945753D01*
X121956283Y-114088917D01*
X122205000Y-114139283D01*
X123755000Y-114139283D01*
X123987352Y-114095563D01*
X124200753Y-113958243D01*
X124343917Y-113748717D01*
X124394283Y-113500000D01*
X124394283Y-112226908D01*
X124683583Y-112227161D01*
X124804982Y-112177000D01*
X125336734Y-112177000D01*
X128123000Y-114963265D01*
X128123000Y-118410000D01*
X128189758Y-118745613D01*
X128379867Y-119030133D01*
X128669867Y-119320133D01*
X128954387Y-119510242D01*
X129290000Y-119577001D01*
X129290005Y-119577000D01*
X129329342Y-119577000D01*
X129331757Y-119580753D01*
X129541283Y-119723917D01*
X129790000Y-119774283D01*
X131010000Y-119774283D01*
X131206974Y-119737220D01*
X131390000Y-119774283D01*
X132610000Y-119774283D01*
X132842352Y-119730563D01*
X133055753Y-119593243D01*
X133066851Y-119577000D01*
X133116088Y-119577000D01*
X133160329Y-119645752D01*
X133369855Y-119788916D01*
X133618572Y-119839282D01*
X134463572Y-119839282D01*
X134695924Y-119795562D01*
X134909325Y-119658242D01*
X135004105Y-119519527D01*
X135085329Y-119645752D01*
X135294855Y-119788916D01*
X135543572Y-119839282D01*
X136388572Y-119839282D01*
X136620924Y-119795562D01*
X136834325Y-119658242D01*
X136977489Y-119448716D01*
X137027855Y-119199999D01*
X137027855Y-118199999D01*
X136984135Y-117967647D01*
X136846815Y-117754246D01*
X136843072Y-117751688D01*
X136843072Y-116466077D01*
X136843073Y-116466072D01*
X136776314Y-116130459D01*
X136586205Y-115845939D01*
X135420133Y-114679867D01*
X135135613Y-114489758D01*
X134800000Y-114423000D01*
X134627000Y-114423000D01*
X134627000Y-106800000D01*
X134541212Y-106368716D01*
X134486164Y-106286331D01*
X134296910Y-106003091D01*
X132996909Y-104703091D01*
X132631284Y-104458788D01*
X132200000Y-104373000D01*
X127274500Y-104373000D01*
X127283815Y-104327000D01*
X132108726Y-104327000D01*
X132120000Y-104329283D01*
X136080000Y-104329283D01*
X136312352Y-104285563D01*
X136525753Y-104148243D01*
X136668917Y-103938717D01*
X136719283Y-103690000D01*
X136719283Y-101710000D01*
X136675563Y-101477648D01*
X136538243Y-101264247D01*
X136328717Y-101121083D01*
X136080000Y-101070717D01*
X132120000Y-101070717D01*
X132107867Y-101073000D01*
X127289283Y-101073000D01*
X127289283Y-100500000D01*
X127245563Y-100267648D01*
X127108243Y-100054247D01*
X126898717Y-99911083D01*
X126650000Y-99860717D01*
X124650000Y-99860717D01*
X124417648Y-99904437D01*
X124204247Y-100041757D01*
X124061083Y-100251283D01*
X124010717Y-100500000D01*
X124010717Y-100773000D01*
X120989283Y-100773000D01*
X120989283Y-99350000D01*
X120984955Y-99327000D01*
X134100000Y-99327000D01*
X134150273Y-99317000D01*
X135141074Y-99317000D01*
X135759873Y-99193913D01*
X136284466Y-98843392D01*
X136634987Y-98318799D01*
X136758074Y-97700000D01*
X136634987Y-97081201D01*
X136284466Y-96556608D01*
X135759873Y-96206087D01*
X135141074Y-96083000D01*
X134150273Y-96083000D01*
X134100000Y-96073000D01*
X108802000Y-96073000D01*
X108802000Y-95002000D01*
X139898000Y-95002000D01*
X139898000Y-106798000D01*
X138600000Y-106798000D01*
X138331356Y-106851437D01*
X138103611Y-107003611D01*
X137951437Y-107231356D01*
X137898000Y-107500000D01*
X137898000Y-109100000D01*
X137951437Y-109368644D01*
X138103611Y-109596389D01*
X138331356Y-109748563D01*
X138600000Y-109802000D01*
X139898000Y-109802000D01*
X139898000Y-121598000D01*
X127327000Y-121598000D01*
X127327000Y-114600000D01*
X127318315Y-114553841D01*
X127291035Y-114511447D01*
X127249410Y-114483006D01*
X127200000Y-114473000D01*
X110800000Y-114473000D01*
X110753841Y-114481685D01*
X110711447Y-114508965D01*
X110683006Y-114550590D01*
X110673000Y-114600000D01*
X110673000Y-117152685D01*
X110461309Y-117065000D01*
X109503250Y-117065000D01*
X109344500Y-117223750D01*
X109344500Y-118873000D01*
X109364500Y-118873000D01*
X109364500Y-119127000D01*
X109344500Y-119127000D01*
X109344500Y-120776250D01*
X109503250Y-120935000D01*
X110461309Y-120935000D01*
X110673000Y-120847315D01*
X110673000Y-121598000D01*
X97802000Y-121598000D01*
X97802000Y-120377000D01*
X101040206Y-120377000D01*
X101069437Y-120532352D01*
X101206757Y-120745753D01*
X101416283Y-120888917D01*
X101665000Y-120939283D01*
X103900000Y-120939283D01*
X104132352Y-120895563D01*
X104345753Y-120758243D01*
X104488917Y-120548717D01*
X104539283Y-120300000D01*
X104539283Y-120127000D01*
X106400000Y-120127000D01*
X106627888Y-120084120D01*
X106837189Y-119949438D01*
X106977601Y-119743938D01*
X107027000Y-119500000D01*
X107027000Y-119285750D01*
X107465000Y-119285750D01*
X107465000Y-120426310D01*
X107561673Y-120659699D01*
X107740302Y-120838327D01*
X107973691Y-120935000D01*
X108931750Y-120935000D01*
X109090500Y-120776250D01*
X109090500Y-119127000D01*
X107623750Y-119127000D01*
X107465000Y-119285750D01*
X107027000Y-119285750D01*
X107027000Y-117573690D01*
X107465000Y-117573690D01*
X107465000Y-118714250D01*
X107623750Y-118873000D01*
X109090500Y-118873000D01*
X109090500Y-117223750D01*
X108931750Y-117065000D01*
X107973691Y-117065000D01*
X107740302Y-117161673D01*
X107561673Y-117340301D01*
X107465000Y-117573690D01*
X107027000Y-117573690D01*
X107027000Y-117500000D01*
X106984120Y-117272112D01*
X106849438Y-117062811D01*
X106643938Y-116922399D01*
X106400000Y-116873000D01*
X104600000Y-116873000D01*
X104372112Y-116915880D01*
X104162811Y-117050562D01*
X104124772Y-117106234D01*
X103900000Y-117060717D01*
X101665000Y-117060717D01*
X101432648Y-117104437D01*
X101239283Y-117228864D01*
X101239283Y-115819999D01*
X101195563Y-115587647D01*
X101058243Y-115374246D01*
X100848717Y-115231082D01*
X100600000Y-115180716D01*
X100000000Y-115180716D01*
X99767648Y-115224436D01*
X99665340Y-115290269D01*
X99578717Y-115231082D01*
X99330000Y-115180716D01*
X98730000Y-115180716D01*
X98497648Y-115224436D01*
X98395340Y-115290269D01*
X98308717Y-115231082D01*
X98060000Y-115180716D01*
X97460000Y-115180716D01*
X97227648Y-115224436D01*
X97125340Y-115290269D01*
X97038717Y-115231082D01*
X96790000Y-115180716D01*
X96190000Y-115180716D01*
X95957648Y-115224436D01*
X95744247Y-115361756D01*
X95601083Y-115571282D01*
X95550717Y-115819999D01*
X95550717Y-117369999D01*
X95594437Y-117602351D01*
X95731757Y-117815752D01*
X95888719Y-117923000D01*
X92534283Y-117923000D01*
X92534283Y-117690000D01*
X92490563Y-117457648D01*
X92353243Y-117244247D01*
X92143717Y-117101083D01*
X91895000Y-117050717D01*
X89105000Y-117050717D01*
X88872648Y-117094437D01*
X88659247Y-117231757D01*
X88516083Y-117441283D01*
X88465717Y-117690000D01*
X88465717Y-120610000D01*
X88509437Y-120842352D01*
X88646757Y-121055753D01*
X88856283Y-121198917D01*
X89105000Y-121249283D01*
X91895000Y-121249283D01*
X92127352Y-121205563D01*
X92340753Y-121068243D01*
X92483917Y-120858717D01*
X92534283Y-120610000D01*
X92534283Y-120377000D01*
X94898000Y-120377000D01*
X94898000Y-121598000D01*
X85302000Y-121598000D01*
X85302000Y-107390000D01*
X88465717Y-107390000D01*
X88465717Y-110310000D01*
X88509437Y-110542352D01*
X88646757Y-110755753D01*
X88856283Y-110898917D01*
X89105000Y-110949283D01*
X91895000Y-110949283D01*
X92127352Y-110905563D01*
X92340753Y-110768243D01*
X92483917Y-110558717D01*
X92534283Y-110310000D01*
X92534283Y-109027000D01*
X95483842Y-109027000D01*
X95501283Y-109038917D01*
X95513000Y-109041290D01*
X95513000Y-111194999D01*
X95550717Y-111384615D01*
X95550717Y-111969999D01*
X95594437Y-112202351D01*
X95731757Y-112415752D01*
X95941283Y-112558916D01*
X96190000Y-112609282D01*
X96790000Y-112609282D01*
X97022352Y-112565562D01*
X97124660Y-112499729D01*
X97211283Y-112558916D01*
X97460000Y-112609282D01*
X98060000Y-112609282D01*
X98292352Y-112565562D01*
X98376992Y-112511098D01*
X98603690Y-112604999D01*
X98744250Y-112604999D01*
X98903000Y-112446249D01*
X98903000Y-111321999D01*
X99157000Y-111321999D01*
X99157000Y-112446249D01*
X99315750Y-112604999D01*
X99456310Y-112604999D01*
X99665000Y-112518557D01*
X99873690Y-112604999D01*
X100014250Y-112604999D01*
X100173000Y-112446249D01*
X100173000Y-111321999D01*
X100427000Y-111321999D01*
X100427000Y-112446249D01*
X100585750Y-112604999D01*
X100726310Y-112604999D01*
X100959699Y-112508326D01*
X101138327Y-112329697D01*
X101232124Y-112103250D01*
X102365000Y-112103250D01*
X102365000Y-113061309D01*
X102461673Y-113294698D01*
X102640301Y-113473327D01*
X102873690Y-113570000D01*
X104014250Y-113570000D01*
X104173000Y-113411250D01*
X104173000Y-111944500D01*
X104427000Y-111944500D01*
X104427000Y-113411250D01*
X104585750Y-113570000D01*
X105726310Y-113570000D01*
X105959699Y-113473327D01*
X106138327Y-113294698D01*
X106224876Y-113085750D01*
X109480000Y-113085750D01*
X109480000Y-113426310D01*
X109576673Y-113659699D01*
X109755302Y-113838327D01*
X109988691Y-113935000D01*
X110251750Y-113935000D01*
X110410500Y-113776250D01*
X110410500Y-112927000D01*
X109638750Y-112927000D01*
X109480000Y-113085750D01*
X106224876Y-113085750D01*
X106235000Y-113061309D01*
X106235000Y-112173690D01*
X109480000Y-112173690D01*
X109480000Y-112514250D01*
X109638750Y-112673000D01*
X110410500Y-112673000D01*
X110410500Y-111823750D01*
X110251750Y-111665000D01*
X109988691Y-111665000D01*
X109755302Y-111761673D01*
X109576673Y-111940301D01*
X109480000Y-112173690D01*
X106235000Y-112173690D01*
X106235000Y-112103250D01*
X106076250Y-111944500D01*
X104427000Y-111944500D01*
X104173000Y-111944500D01*
X102523750Y-111944500D01*
X102365000Y-112103250D01*
X101232124Y-112103250D01*
X101235000Y-112096308D01*
X101235000Y-111480749D01*
X101076250Y-111321999D01*
X100427000Y-111321999D01*
X100173000Y-111321999D01*
X99157000Y-111321999D01*
X98903000Y-111321999D01*
X98883000Y-111321999D01*
X98883000Y-111067999D01*
X98903000Y-111067999D01*
X98903000Y-109943749D01*
X99157000Y-109943749D01*
X99157000Y-111067999D01*
X100173000Y-111067999D01*
X100173000Y-109943749D01*
X100427000Y-109943749D01*
X100427000Y-111067999D01*
X101076250Y-111067999D01*
X101235000Y-110909249D01*
X101235000Y-110573691D01*
X102365000Y-110573691D01*
X102365000Y-111531750D01*
X102523750Y-111690500D01*
X104173000Y-111690500D01*
X104173000Y-110223750D01*
X104427000Y-110223750D01*
X104427000Y-111690500D01*
X106076250Y-111690500D01*
X106235000Y-111531750D01*
X106235000Y-110573691D01*
X106138327Y-110340302D01*
X105959699Y-110161673D01*
X105726310Y-110065000D01*
X104585750Y-110065000D01*
X104427000Y-110223750D01*
X104173000Y-110223750D01*
X104014250Y-110065000D01*
X102873690Y-110065000D01*
X102640301Y-110161673D01*
X102461673Y-110340302D01*
X102365000Y-110573691D01*
X101235000Y-110573691D01*
X101235000Y-110293690D01*
X101138327Y-110060301D01*
X100959699Y-109881672D01*
X100726310Y-109784999D01*
X100585750Y-109784999D01*
X100427000Y-109943749D01*
X100173000Y-109943749D01*
X100014250Y-109784999D01*
X99873690Y-109784999D01*
X99665000Y-109871441D01*
X99456310Y-109784999D01*
X99315750Y-109784999D01*
X99157000Y-109943749D01*
X98903000Y-109943749D01*
X98744250Y-109784999D01*
X98737000Y-109784999D01*
X98737000Y-109085000D01*
X98814250Y-109085000D01*
X98973000Y-108926250D01*
X98973000Y-108027000D01*
X99227000Y-108027000D01*
X99227000Y-108926250D01*
X99385750Y-109085000D01*
X99776309Y-109085000D01*
X100009698Y-108988327D01*
X100188327Y-108809699D01*
X100285000Y-108576310D01*
X100285000Y-108185750D01*
X100126250Y-108027000D01*
X99227000Y-108027000D01*
X98973000Y-108027000D01*
X98953000Y-108027000D01*
X98953000Y-107773000D01*
X98973000Y-107773000D01*
X98973000Y-107753000D01*
X99227000Y-107753000D01*
X99227000Y-107773000D01*
X100126250Y-107773000D01*
X100285000Y-107614250D01*
X100285000Y-107223690D01*
X100196279Y-107009500D01*
X102635053Y-107009500D01*
X102751283Y-107088917D01*
X103000000Y-107139283D01*
X105600000Y-107139283D01*
X105832352Y-107095563D01*
X106045753Y-106958243D01*
X106188917Y-106748717D01*
X106239283Y-106500000D01*
X106239283Y-104985750D01*
X117715000Y-104985750D01*
X117715000Y-105576310D01*
X117811673Y-105809699D01*
X117990302Y-105988327D01*
X118223691Y-106085000D01*
X119064250Y-106085000D01*
X119223000Y-105926250D01*
X119223000Y-104827000D01*
X119477000Y-104827000D01*
X119477000Y-105926250D01*
X119635750Y-106085000D01*
X120476309Y-106085000D01*
X120709698Y-105988327D01*
X120888327Y-105809699D01*
X120985000Y-105576310D01*
X120985000Y-104985750D01*
X120826250Y-104827000D01*
X119477000Y-104827000D01*
X119223000Y-104827000D01*
X117873750Y-104827000D01*
X117715000Y-104985750D01*
X106239283Y-104985750D01*
X106239283Y-104265000D01*
X106195563Y-104032648D01*
X106058243Y-103819247D01*
X105848717Y-103676083D01*
X105600000Y-103625717D01*
X105527000Y-103625717D01*
X105527000Y-101500000D01*
X105489283Y-101310384D01*
X105489283Y-100950000D01*
X105445563Y-100717648D01*
X105308243Y-100504247D01*
X105098717Y-100361083D01*
X104850000Y-100310717D01*
X104489616Y-100310717D01*
X104300000Y-100273000D01*
X104110384Y-100310717D01*
X103750000Y-100310717D01*
X103517648Y-100354437D01*
X103304247Y-100491757D01*
X103161083Y-100701283D01*
X103110717Y-100950000D01*
X103110717Y-101310384D01*
X103073000Y-101500000D01*
X103073000Y-103625717D01*
X103000000Y-103625717D01*
X102767648Y-103669437D01*
X102633903Y-103755500D01*
X97817500Y-103755500D01*
X97194874Y-103879348D01*
X96667037Y-104232037D01*
X96314348Y-104759874D01*
X96190500Y-105382500D01*
X96314348Y-106005126D01*
X96667037Y-106532963D01*
X96783000Y-106610447D01*
X96783000Y-106710717D01*
X95750000Y-106710717D01*
X95517648Y-106754437D01*
X95488800Y-106773000D01*
X92005038Y-106773000D01*
X91895000Y-106750717D01*
X89105000Y-106750717D01*
X88872648Y-106794437D01*
X88659247Y-106931757D01*
X88516083Y-107141283D01*
X88465717Y-107390000D01*
X85302000Y-107390000D01*
X85302000Y-103078865D01*
X88629782Y-103078865D01*
X88660095Y-103204528D01*
X88971149Y-103759246D01*
X89470807Y-104152703D01*
X90083000Y-104325000D01*
X91073000Y-104325000D01*
X91073000Y-102827000D01*
X91327000Y-102827000D01*
X91327000Y-104325000D01*
X92317000Y-104325000D01*
X92929193Y-104152703D01*
X93428851Y-103759246D01*
X93739905Y-103204528D01*
X93770218Y-103078865D01*
X93650740Y-102827000D01*
X91327000Y-102827000D01*
X91073000Y-102827000D01*
X88749260Y-102827000D01*
X88629782Y-103078865D01*
X85302000Y-103078865D01*
X85302000Y-102321135D01*
X88629782Y-102321135D01*
X88749260Y-102573000D01*
X91073000Y-102573000D01*
X91073000Y-101075000D01*
X91327000Y-101075000D01*
X91327000Y-102573000D01*
X93650740Y-102573000D01*
X93770218Y-102321135D01*
X93739905Y-102195472D01*
X93428851Y-101640754D01*
X92929193Y-101247297D01*
X92317000Y-101075000D01*
X91327000Y-101075000D01*
X91073000Y-101075000D01*
X90083000Y-101075000D01*
X89470807Y-101247297D01*
X88971149Y-101640754D01*
X88660095Y-102195472D01*
X88629782Y-102321135D01*
X85302000Y-102321135D01*
X85302000Y-95002000D01*
X105898000Y-95002000D01*
X105898000Y-96073000D01*
G36*
X132373000Y-107266819D02*
X132373000Y-114193000D01*
X132216833Y-114193000D01*
X132108243Y-114024247D01*
X131898717Y-113881083D01*
X131814131Y-113863954D01*
X131873333Y-113824397D01*
X132193506Y-113345223D01*
X132305936Y-112780000D01*
X132193506Y-112214777D01*
X131873333Y-111735603D01*
X131535693Y-111510000D01*
X131873333Y-111284397D01*
X132193506Y-110805223D01*
X132305936Y-110240000D01*
X132193506Y-109674777D01*
X131873333Y-109195603D01*
X131530061Y-108966236D01*
X131681358Y-108895183D01*
X132071645Y-108466924D01*
X132241476Y-108056890D01*
X132120155Y-107827000D01*
X130927000Y-107827000D01*
X130927000Y-107847000D01*
X130673000Y-107847000D01*
X130673000Y-107827000D01*
X130653000Y-107827000D01*
X130653000Y-107573000D01*
X130673000Y-107573000D01*
X130673000Y-107553000D01*
X130927000Y-107553000D01*
X130927000Y-107573000D01*
X132120155Y-107573000D01*
X132241476Y-107343110D01*
X132094544Y-106988363D01*
X132373000Y-107266819D01*
X132373000Y-107266819D01*
G37*
X132373000Y-107266819D02*
X132373000Y-114193000D01*
X132216833Y-114193000D01*
X132108243Y-114024247D01*
X131898717Y-113881083D01*
X131814131Y-113863954D01*
X131873333Y-113824397D01*
X132193506Y-113345223D01*
X132305936Y-112780000D01*
X132193506Y-112214777D01*
X131873333Y-111735603D01*
X131535693Y-111510000D01*
X131873333Y-111284397D01*
X132193506Y-110805223D01*
X132305936Y-110240000D01*
X132193506Y-109674777D01*
X131873333Y-109195603D01*
X131530061Y-108966236D01*
X131681358Y-108895183D01*
X132071645Y-108466924D01*
X132241476Y-108056890D01*
X132120155Y-107827000D01*
X130927000Y-107827000D01*
X130927000Y-107847000D01*
X130673000Y-107847000D01*
X130673000Y-107827000D01*
X130653000Y-107827000D01*
X130653000Y-107573000D01*
X130673000Y-107573000D01*
X130673000Y-107553000D01*
X130927000Y-107553000D01*
X130927000Y-107573000D01*
X132120155Y-107573000D01*
X132241476Y-107343110D01*
X132094544Y-106988363D01*
X132373000Y-107266819D01*
G36*
X106273000Y-119373000D02*
X104727000Y-119373000D01*
X104727000Y-117627000D01*
X106273000Y-117627000D01*
X106273000Y-119373000D01*
X106273000Y-119373000D01*
G37*
X106273000Y-119373000D02*
X104727000Y-119373000D01*
X104727000Y-117627000D01*
X106273000Y-117627000D01*
X106273000Y-119373000D01*
M02*
